<svg xmlns="http://www.w3.org/2000/svg" viewBox="0 1931.3 4252 1869" enable-background="new 0 1931.3 4252 1869"><path opacity=".15" stroke="#000" stroke-width=".5" stroke-miterlimit="10" enable-background="new" d="M283.7 3343.1h3731.1" fill="none"/><g stroke="#000" stroke-width=".5" stroke-miterlimit="10" stroke-dasharray="3" fill="none"><path opacity=".15" enable-background="new" d="M905.4 3343.1v-1344.5m622 1344.5v-1344.5M2149.1 3344.7v-1344.5M2771.2 3343.1v-1344.5m621.6 1344.5v-1344.5M4014.9 3344.7v-1344.5"/></g><text transform="translate(193.708 3390.606)" font-family="'FuturaPT-Book'" font-size="55.79">0</text><text transform="translate(133.852 3222.479)" font-family="'FuturaPT-Book'" font-size="55.79">1</text><text transform="translate(162.144 3222.479)" font-family="'FuturaPT-Book'" font-size="55.79">00</text><text transform="translate(131.726 3054.349)" font-family="'FuturaPT-Book'" font-size="55.79">2</text><text transform="translate(162.014 3054.349)" font-family="'FuturaPT-Book'" font-size="55.79">00</text><text transform="translate(130.337 2886.22)" font-family="'FuturaPT-Book'" font-size="55.79">300</text><text transform="translate(130.337 2718.09)" font-family="'FuturaPT-Book'" font-size="55.79">400</text><text transform="translate(130.337 2549.968)" font-family="'FuturaPT-Book'" font-size="55.79">500</text><text transform="translate(130.337 2381.834)" font-family="'FuturaPT-Book'" font-size="55.79">600</text><text transform="translate(133.122 2213.707)" font-family="'FuturaPT-Book'" font-size="55.79">7</text><text transform="translate(162.213 2213.707)" font-family="'FuturaPT-Book'" font-size="55.79">00</text><text transform="translate(130.337 2045.578)" font-family="'FuturaPT-Book'" font-size="55.79">800</text><path opacity=".15" stroke="#000" stroke-width=".5" stroke-miterlimit="10" enable-background="new" d="M283.7 3343.1v-1344.9" fill="none"/><path opacity=".15" stroke="#000" stroke-width=".5" stroke-miterlimit="10" stroke-dasharray="3" enable-background="new" d="M283.7 3175.4h3731.1m-3731.1-168.2h3731.1m-3731.1-168.2h3731.1m-3731.1-168.1h3731.1m-3731.1-168.2h3731.1m-3731.1-168.2h3731.1m-3731.1-168.1h3731.1m-3731.1-168.2h3731.1" fill="none"/><path stroke="#D91C5C" stroke-width=".5" stroke-miterlimit="10" d="M1216.6 2923.1l-622.1 361.4m1243.8-437.1l-621.7 75.7m1243.7-143l-622.1 67.3m1243.8-168.2l-621.7 100.8m1243.7-672.6l-622 571.8" fill="none"/><path stroke="#000" stroke-miterlimit="10" d="M1826.3 2835.4h23.9v23.9h-23.9v-23.9zm622.1-67.3h23.9v23.9h-23.9v-23.9zm621.6-100.8h23.9v23.9h-23.9v-23.9z"/><text transform="translate(576.379 3484.001)" font-family="'FuturaPT-Book'" font-size="55.79">II</text><text transform="translate(1196.13 3484.001)" font-family="'FuturaPT-Book'" font-size="55.79">III</text><text transform="translate(1816.592 3484.001)" font-family="'FuturaPT-Book'" font-size="55.79">IV</text><text transform="translate(3066.106 3484.001)" font-family="'FuturaPT-Book'" font-size="55.79">II</text><text transform="translate(2444.308 3484.001)" font-family="'FuturaPT-Book'" font-size="55.79">I</text><text transform="translate(3685.853 3484.001)" font-family="'FuturaPT-Book'" font-size="55.79">III</text><text transform="matrix(0 -1 1 0 56.141 2421.838)" font-family="'FuturaPT-Book'" font-size="55.79">миллионов рублей</text><g opacity=".3"><path d="M2148.7 3399.7v164.2"/><path stroke="#000" stroke-width=".5" stroke-miterlimit="10" d="M2148.7 3399.7v143.5" fill="none"/><circle cx="2148.7" cy="3542" r="21.5"/></g><text transform="translate(1917.161 3647.77)" font-family="'FuturaPT-Book'" font-size="55.79">кварталы 2014-2015</text><text transform="translate(530.354 3221.189)" fill="#EC297B" font-family="'FuturaPT-Book'" font-size="55.79">+35</text><text transform="translate(1144.325 2846.601)" fill="#EC297B" font-family="'FuturaPT-Book'" font-size="55.79">+215</text><text transform="translate(1773.952 2780.646)" fill="#EC297B" font-family="'FuturaPT-Book'" font-size="55.79">+45</text><text transform="translate(2391.624 2716.882)" fill="#EC297B" font-family="'FuturaPT-Book'" font-size="55.79">+40</text><text transform="translate(3013.28 2597.334)" fill="#EC297B" font-family="'FuturaPT-Book'" font-size="55.79">+60</text><text transform="translate(3618.996 2059.36)" fill="#EC297B" font-family="'FuturaPT-Book'" font-size="55.79">+340</text><circle fill="#F9E600" cx="594.6" cy="3284.5" r="27.9"/><circle fill="#F9E600" cx="1216.6" cy="2923.1" r="27.9"/><circle fill="#F9E600" cx="1838.3" cy="2847.4" r="27.9"/><circle fill="#F9E600" cx="2461.9" cy="2780.4" r="27.9"/><circle fill="#F9E600" cx="3081.6" cy="2672.9" r="27.9"/><circle fill="#75E9FF" cx="3700.4" cy="2109.4" r="27.9"/></svg>