<svg xmlns="http://www.w3.org/2000/svg" viewBox="0 0 1067 428" enable-background="new 0 0 1067 428"><path opacity=".15" stroke="#000" stroke-width=".5" stroke-miterlimit="10" d="M71.2 341.6h936.3" fill="none"/><g stroke="#000" stroke-width=".5" stroke-miterlimit="10" stroke-dasharray="3" fill="none"><path opacity=".15" clip-rule="evenodd" d="M227.2 341.6v-337.4m156.1 337.4v-337.4"/><path opacity=".15" d="M539.3 342v-337.4"/><path opacity=".15" clip-rule="evenodd" d="M695.4 341.6v-337.4m156 337.4v-337.4"/><path opacity=".15" d="M1007.5 342v-337.4"/></g><text transform="translate(48.61 353.514)" font-family="'FuturaPT-Book'" font-size="14">0</text><text transform="translate(33.589 311.323)"><tspan x="0" y="0" font-family="'FuturaPT-Book'" font-size="14">1</tspan><tspan x="7.1" y="0" font-family="'FuturaPT-Book'" font-size="14">00</tspan></text><text transform="translate(33.056 269.133)"><tspan x="0" y="0" font-family="'FuturaPT-Book'" font-size="14">2</tspan><tspan x="7.6" y="0" font-family="'FuturaPT-Book'" font-size="14">00</tspan></text><text transform="translate(32.707 226.942)" font-family="'FuturaPT-Book'" font-size="14">300</text><text transform="translate(32.707 184.751)" font-family="'FuturaPT-Book'" font-size="14">400</text><text transform="translate(32.707 142.561)" font-family="'FuturaPT-Book'" font-size="14">500</text><text transform="translate(32.707 100.37)" font-family="'FuturaPT-Book'" font-size="14">600</text><text transform="translate(33.406 58.18)"><tspan x="0" y="0" font-family="'FuturaPT-Book'" font-size="14">7</tspan><tspan x="7.3" y="0" font-family="'FuturaPT-Book'" font-size="14">00</tspan></text><text transform="translate(32.707 15.989)" font-family="'FuturaPT-Book'" font-size="14">800</text><path opacity=".15" stroke="#000" stroke-width=".5" stroke-miterlimit="10" d="M71.2 341.6v-337.5" fill="none"/><path opacity=".15" d="M71.2 299.5h936.3m-936.3-42.2h936.3m-936.3-42.2h936.3m-936.3-42.2h936.3m-936.3-42.2h936.3m-936.3-42.2h936.3m-936.3-42.2h936.3m-936.3-42.2h936.3" stroke="#000" stroke-width=".5" stroke-miterlimit="10" stroke-dasharray="3" fill="none"/><path d="M305.3 236.2l-156.1 90.7m312.1-109.7l-156 19m312.1-35.9l-156.1 16.9m312.1-42.2l-156 25.3m312.1-168.8l-156.1 143.5" clip-rule="evenodd" stroke="#D91C5C" stroke-width=".5" stroke-miterlimit="10" fill="none"/><path d="M458.3 214.2h6v6h-6zm156.1-16.9h6v6h-6zm156-25.3h6v6h-6z" fill-rule="evenodd" clip-rule="evenodd" stroke="#000" stroke-miterlimit="10"/><text transform="translate(144.638 376.951)" font-family="'FuturaPT-Book'" font-size="14">II</text><text transform="translate(300.16 376.951)" font-family="'FuturaPT-Book'" font-size="14">III</text><text transform="translate(455.86 376.951)" font-family="'FuturaPT-Book'" font-size="14">IV</text><text transform="translate(769.416 376.951)" font-family="'FuturaPT-Book'" font-size="14">II</text><text transform="translate(613.381 376.951)" font-family="'FuturaPT-Book'" font-size="14">I</text><text transform="translate(924.937 376.951)" font-family="'FuturaPT-Book'" font-size="14">III</text><text transform="matrix(0 -1 1 0 14.088 110.409)" font-family="'FuturaPT-Book'" font-size="14">миллионов рублей</text><g opacity=".3"><path d="M539.2 355.8v41.2"/><path stroke="#000" stroke-width=".5" stroke-miterlimit="10" d="M539.2 355.8v36" fill="none"/><circle cx="539.2" cy="391.5" r="5.4"/></g><text transform="translate(481.097 418.047)" font-family="'FuturaPT-Book'" font-size="14">кварталы 2014-2015</text><text transform="translate(133.088 311)" fill="#EC297B" font-family="'FuturaPT-Book'" font-size="14">+35</text><text transform="translate(287.16 217)" fill="#EC297B" font-family="'FuturaPT-Book'" font-size="14">+215</text><text transform="translate(445.16 200.449)" fill="#EC297B" font-family="'FuturaPT-Book'" font-size="14">+45</text><text transform="translate(600.16 184.448)" fill="#EC297B" font-family="'FuturaPT-Book'" font-size="14">+40</text><text transform="translate(756.16 154.448)" fill="#EC297B" font-family="'FuturaPT-Book'" font-size="14">+60</text><text transform="translate(908.16 19.448)" fill="#EC297B" font-family="'FuturaPT-Book'" font-size="14">+340</text><path stroke="#000" stroke-miterlimit="10" d="M185.5-95.8h84.5m-84.5 0v-1m84.5 1v-1" fill="none"/><g font-family="'MyriadPro-Regular'" font-size="3.961"><text transform="translate(179.278 -94.265)">0,8</text><text transform="translate(179.278 -116.015)">1,0</text><text transform="translate(179.278 -137.765)">1,2</text></g><path stroke="#000" stroke-miterlimit="10" d="M185.5-95.8v-43.4m0 43.4h2.1m-2.1-21.7h2.1m-2.1-21.7h2.1" fill="none"/><path stroke="#000" stroke-width=".5" stroke-miterlimit="10" d="M224.7-120.5h6v6h-6z"/><circle fill-rule="evenodd" clip-rule="evenodd" fill="#F9E600" cx="149.2" cy="326.9" r="7"/><circle fill-rule="evenodd" clip-rule="evenodd" fill="#F9E600" cx="305.3" cy="236.2" r="7"/><circle fill-rule="evenodd" clip-rule="evenodd" fill="#F9E600" cx="461.3" cy="217.2" r="7"/><circle fill-rule="evenodd" clip-rule="evenodd" fill="#F9E600" cx="617.8" cy="200.4" r="7"/><circle fill-rule="evenodd" clip-rule="evenodd" fill="#F9E600" cx="773.3" cy="173.4" r="7"/><path stroke="#000" stroke-miterlimit="10" d="M377.1-45h127m-127 0v-.9m127 .9v-.9" fill="none"/><g font-family="'MyriadPro-Regular'" font-size="3.469"><text transform="translate(370.827 -43.699)">0,8</text><text transform="translate(370.827 -62.199)">1,0</text><text transform="translate(370.827 -80.699)">1,2</text></g><path stroke="#000" stroke-miterlimit="10" d="M377.1-45v-37m0 37h3.2m-3.2-18.5h3.2m-3.2-18.5h3.2" fill="none"/><path stroke="#000" stroke-width=".5" stroke-miterlimit="10" d="M437.6-66.5h6v6h-6z"/><circle fill-rule="evenodd" clip-rule="evenodd" fill="#75E9FF" cx="928.6" cy="32" r="7"/></svg>