<?xml version="1.0" encoding="utf-8"?>
<!-- Generator: Adobe Illustrator 15.1.0, SVG Export Plug-In . SVG Version: 6.00 Build 0)  -->
<!DOCTYPE svg PUBLIC "-//W3C//DTD SVG 1.1//EN" "http://www.w3.org/Graphics/SVG/1.1/DTD/svg11.dtd">
<svg version="1.1" id="Layer_1" xmlns="http://www.w3.org/2000/svg" xmlns:xlink="http://www.w3.org/1999/xlink" x="0px" y="0px"
	 width="400px" height="400px" viewBox="0 0 400 400" enable-background="new 0 0 400 400" xml:space="preserve">
<linearGradient id="SVGID_1_" gradientUnits="userSpaceOnUse" x1="200.4966" y1="364.3896" x2="200.4966" y2="136.19">
	<stop  offset="0" style="stop-color:#F6EB16"/>
	<stop  offset="1" style="stop-color:#FCD900"/>
</linearGradient>
<rect x="61.83" y="60.998" fill="url(#SVGID_1_)" width="277.333" height="277.334"/>
<g>
	<path fill="#FFFFFF" d="M200.251,95.721c-41.407,0-75.091,33.684-75.091,75.091c0,25.688,16.666,44.572,30.06,59.744
		c8.8,9.972,16.399,18.582,17.297,26.319c0.007,0.062,0.03,0.118,0.042,0.175c0.025,0.166,0.062,0.328,0.106,0.488
		c0.037,0.148,0.074,0.293,0.128,0.439c0.054,0.145,0.123,0.285,0.192,0.426c0.064,0.143,0.13,0.279,0.209,0.41
		c0.084,0.135,0.178,0.258,0.271,0.384c0.091,0.121,0.18,0.244,0.284,0.353c0.104,0.116,0.22,0.22,0.335,0.326
		c0.118,0.107,0.234,0.209,0.36,0.305c0.113,0.084,0.234,0.158,0.357,0.232c0.156,0.096,0.313,0.183,0.476,0.262
		c0.052,0.021,0.089,0.052,0.138,0.074c0.488,0.207,12.042,5.052,24.837,5.052c12.795,0,24.35-4.845,24.838-5.052
		c0.451-0.19,0.843-0.461,1.197-0.763c0.055-0.052,0.113-0.094,0.168-0.146c0.373-0.345,0.678-0.739,0.925-1.174
		c0.044-0.071,0.077-0.145,0.116-0.225c0.229-0.461,0.385-0.951,0.456-1.464c0.005-0.04,0.032-0.069,0.034-0.108
		c0.896-7.738,8.494-16.348,17.297-26.319c13.395-15.171,30.061-34.057,30.061-59.744
		C275.343,129.405,241.656,95.721,200.251,95.721z M238.068,224.19c-8.936,10.122-16.707,19.003-19.037,28.556
		c-3.615,1.25-11.035,3.438-18.782,3.438s-15.167-2.188-18.781-3.438c-2.33-9.553-10.102-18.434-19.038-28.556
		c-12.962-14.684-27.653-31.325-27.653-53.378c0-36.104,29.369-65.47,65.47-65.47c36.101,0,65.472,29.37,65.472,65.47
		C265.722,192.866,251.031,209.507,238.068,224.19z"/>
	<path fill="#FFFFFF" d="M219.706,266.117c-0.094,0.037-9.569,3.664-19.457,3.664c-9.887,0-19.363-3.629-19.457-3.664
		c-1.657-0.648-3.506,0.176-4.149,1.827c-0.644,1.649,0.175,3.507,1.822,4.149c0.432,0.168,10.657,4.104,21.785,4.104
		c11.128,0,21.351-3.936,21.784-4.104c1.647-0.643,2.464-2.5,1.822-4.149C223.217,266.295,221.358,265.469,219.706,266.117z"/>
	<path fill="#FFFFFF" d="M218.977,275.754c-0.089,0.039-9.215,3.648-18.728,3.648s-18.636-3.612-18.727-3.648
		c-1.647-0.658-3.511,0.138-4.172,1.779c-0.658,1.643,0.135,3.507,1.775,4.17c0.417,0.165,10.333,4.115,21.124,4.115
		c10.788,0,20.704-3.95,21.122-4.115c1.642-0.666,2.434-2.527,1.777-4.17C222.487,275.889,220.621,275.098,218.977,275.754z"/>
	<path fill="#FFFFFF" d="M217.287,285.412c-0.084,0.034-8.396,3.614-17.036,3.614c-8.64,0-16.952-3.58-17.036-3.614
		c-1.612-0.705-3.514,0.034-4.221,1.654c-0.708,1.619,0.03,3.511,1.649,4.221c0.385,0.168,9.589,4.152,19.607,4.152
		s19.223-3.982,19.608-4.152c1.622-0.71,2.357-2.602,1.649-4.221C220.799,285.441,218.902,284.704,217.287,285.412z"/>
	<path fill="#FFFFFF" d="M215.584,295.077c-0.077,0.034-7.521,3.565-15.335,3.565c-7.762,0-15.26-3.533-15.336-3.57
		c-1.591-0.762-3.511-0.084-4.273,1.509c-0.764,1.599-0.094,3.509,1.502,4.276c0.209,0.098,3.203,1.514,7.496,2.672
		c-0.037,2.21,1.445,4.227,3.676,4.762c0.345,0.084,3.467,0.811,6.936,0.811c3.47,0,6.594-0.727,6.937-0.811
		c2.23-0.54,3.713-2.552,3.668-4.762c4.293-1.158,7.292-2.574,7.502-2.672c1.595-0.77,2.271-2.686,1.501-4.279
		C219.095,294.983,217.184,294.301,215.584,295.077z"/>
	<path fill="#FFFFFF" d="M234.353,168.702c-6.749,0-12.242-5.491-12.242-12.237c0-2.656-2.155-4.811-4.811-4.811
		s-4.808,2.155-4.808,4.811c0,6.749-5.492,12.237-12.241,12.237s-12.242-5.491-12.242-12.237c0-2.656-2.155-4.811-4.811-4.811
		s-4.811,2.155-4.811,4.811c0,6.749-5.489,12.237-12.237,12.237c-2.656,0-4.811,2.155-4.811,4.811s2.155,4.811,4.811,4.811
		c6.892,0,13.041-3.213,17.05-8.216c4.012,5,10.159,8.216,17.053,8.216c6.895,0,13.041-3.213,17.049-8.216
		c4.012,5,10.158,8.216,17.053,8.216c2.655,0,4.811-2.155,4.811-4.811C239.163,170.856,237.008,168.702,234.353,168.702z"/>
</g>
</svg>
