<svg xmlns="http://www.w3.org/2000/svg" viewBox="0 0 400 400" enable-background="new 0 0 400 400"><linearGradient id="a" gradientUnits="userSpaceOnUse" x1="200.496" y1="364.39" x2="200.496" y2="136.19"><stop offset="0" stop-color="#F6EB16"/><stop offset="1" stop-color="#FCD900"/></linearGradient><path fill="url(#a)" d="M318.7 338.3h-236.4c-11.3 0-20.4-9.1-20.4-20.4v-236.5c-.1-11.3 9.1-20.4 20.4-20.4h236.5c11.3 0 20.4 9.1 20.4 20.4v236.5c0 11.3-9.2 20.4-20.5 20.4z"/><path d="M200.3 95.7c-41.4 0-75.1 33.7-75.1 75.1 0 25.7 16.7 44.6 30.1 59.7 8.8 10 16.4 18.6 17.3 26.3v.2l.1.5.1.4.2.4.2.4.3.4c.1.1.2.2.3.4l.3.3c.1.1.2.2.4.3.1.1.2.2.4.2l.5.3c.1 0 .1.1.1.1.5.2 12 5.1 24.8 5.1s24.4-4.8 24.8-5.1c.5-.2.8-.5 1.2-.8.1-.1.1-.1.2-.1.4-.3.7-.7.9-1.2l.1-.2c.2-.5.4-1 .5-1.5v-.1c.9-7.7 8.5-16.3 17.3-26.3 13.4-15.2 30.1-34.1 30.1-59.7-.1-41.4-33.7-75.1-75.1-75.1zm37.8 128.5c-8.9 10.1-16.7 19-19 28.6-3.6 1.2-11 3.4-18.8 3.4s-15.2-2.2-18.8-3.4c-2.3-9.6-10.1-18.4-19-28.6-13-14.7-27.7-31.3-27.7-53.4 0-36.1 29.4-65.5 65.5-65.5s65.5 29.4 65.5 65.5c-.1 22.1-14.8 38.7-27.7 53.4zm-18.4 41.9c-.1 0-9.6 3.7-19.5 3.7s-19.4-3.6-19.5-3.7c-1.7-.6-3.5.2-4.1 1.8-.6 1.6.2 3.5 1.8 4.1.4.2 10.7 4.1 21.8 4.1s21.4-3.9 21.8-4.1c1.6-.6 2.5-2.5 1.8-4.1-.6-1.6-2.4-2.4-4.1-1.8zm-.7 9.7c-.1 0-9.2 3.6-18.7 3.6s-18.6-3.6-18.7-3.6c-1.6-.7-3.5.1-4.2 1.8-.7 1.6.1 3.5 1.8 4.2.4.2 10.3 4.1 21.1 4.1s20.7-4 21.1-4.1c1.6-.7 2.4-2.5 1.8-4.2-.7-1.7-2.6-2.5-4.2-1.8zm-1.7 9.6c-.1 0-8.4 3.6-17 3.6l-17-3.6c-1.6-.7-3.5 0-4.2 1.7-.7 1.6 0 3.5 1.6 4.2.4.2 9.6 4.2 19.6 4.2s19.2-4 19.6-4.2c1.6-.7 2.4-2.6 1.6-4.2-.7-1.7-2.6-2.4-4.2-1.7zm-1.7 9.7c-.1 0-7.5 3.6-15.3 3.6-7.8 0-15.3-3.5-15.3-3.6-1.6-.8-3.5-.1-4.3 1.5-.8 1.6-.1 3.5 1.5 4.3.2.1 3.2 1.5 7.5 2.7 0 2.2 1.4 4.2 3.7 4.8.3.1 3.5.8 6.9.8 3.5 0 6.6-.7 6.9-.8 2.2-.5 3.7-2.6 3.7-4.8 4.3-1.2 7.3-2.6 7.5-2.7 1.6-.8 2.3-2.7 1.5-4.3-.8-1.6-2.7-2.3-4.3-1.5zm18.8-126.4c-6.7 0-12.2-5.5-12.2-12.2 0-2.7-2.2-4.8-4.8-4.8s-4.8 2.2-4.8 4.8c0 6.7-5.5 12.2-12.2 12.2s-12.2-5.5-12.2-12.2c0-2.7-2.2-4.8-4.8-4.8s-4.8 2.2-4.8 4.8c0 6.7-5.5 12.2-12.2 12.2-2.7 0-4.8 2.2-4.8 4.8s2.2 4.8 4.8 4.8c6.9 0 13-3.2 17.1-8.2 4 5 10.2 8.2 17.1 8.2 6.9 0 13-3.2 17-8.2 4 5 10.2 8.2 17.1 8.2 2.7 0 4.8-2.2 4.8-4.8-.3-2.6-2.5-4.8-5.1-4.8z" fill="#fff"/></svg>