<svg xmlns="http://www.w3.org/2000/svg" width="400" height="400" viewBox="0 0 400 400"><linearGradient id="a" gradientUnits="userSpaceOnUse" x1="200.497" y1="339.594" x2="200.497" y2="60.327"><stop offset="0" stop-color="#FECF09"/><stop offset="1" stop-color="#FAA51A"/></linearGradient><path fill="url(#a)" d="M289.598 338.332h-178.203c-27.374 0-49.565-22.191-49.565-49.564v-178.205c0-27.374 22.191-49.565 49.565-49.565h178.203c27.375 0 49.565 22.191 49.565 49.565v178.205c0 27.373-22.19 49.564-49.565 49.564z"/><g fill="#fff"><path d="M200.251 95.721c-41.407 0-75.091 33.684-75.091 75.091 0 25.688 16.666 44.572 30.06 59.744 8.8 9.972 16.399 18.582 17.297 26.319l.042.175c.025.166.062.328.106.488.037.148.074.293.128.439l.192.426c.064.143.13.279.209.41l.271.384c.091.121.18.244.284.353l.335.326.36.305.357.232c.156.096.313.183.476.262l.138.074c.488.207 12.042 5.052 24.837 5.052s24.35-4.845 24.838-5.052c.451-.19.843-.461 1.197-.763l.168-.146c.373-.345.678-.739.925-1.174l.116-.225c.229-.461.385-.951.456-1.464l.034-.108c.896-7.738 8.494-16.348 17.297-26.319 13.395-15.171 30.061-34.057 30.061-59.744-.001-41.401-33.688-75.085-75.093-75.085zm37.817 128.469c-8.936 10.122-16.707 19.003-19.037 28.556-3.615 1.25-11.035 3.438-18.782 3.438s-15.167-2.188-18.781-3.438c-2.33-9.553-10.102-18.434-19.038-28.556-12.962-14.684-27.653-31.325-27.653-53.378 0-36.104 29.369-65.47 65.47-65.47s65.472 29.37 65.472 65.47c.003 22.054-14.688 38.695-27.651 53.378zM219.706 266.117c-.094.037-9.569 3.664-19.457 3.664-9.887 0-19.363-3.629-19.457-3.664-1.657-.648-3.506.176-4.149 1.827-.644 1.649.175 3.507 1.822 4.149.432.168 10.657 4.104 21.785 4.104s21.351-3.936 21.784-4.104c1.647-.643 2.464-2.5 1.822-4.149-.639-1.649-2.498-2.475-4.15-1.827zM218.977 275.754c-.089.039-9.215 3.648-18.728 3.648s-18.636-3.612-18.727-3.648c-1.647-.658-3.511.138-4.172 1.779-.658 1.643.135 3.507 1.775 4.17.417.165 10.333 4.115 21.124 4.115 10.788 0 20.704-3.95 21.122-4.115 1.642-.666 2.434-2.527 1.777-4.17-.661-1.644-2.527-2.435-4.171-1.779zM217.287 285.412c-.084.034-8.396 3.614-17.036 3.614s-16.952-3.58-17.036-3.614c-1.612-.705-3.514.034-4.221 1.654-.708 1.619.03 3.511 1.649 4.221.385.168 9.589 4.152 19.607 4.152s19.223-3.982 19.608-4.152c1.622-.71 2.357-2.602 1.649-4.221-.708-1.625-2.605-2.362-4.22-1.654zM215.584 295.077c-.077.034-7.521 3.565-15.335 3.565-7.762 0-15.26-3.533-15.336-3.57-1.591-.762-3.511-.084-4.273 1.509-.764 1.599-.094 3.509 1.502 4.276.209.098 3.203 1.514 7.496 2.672-.037 2.21 1.445 4.227 3.676 4.762.345.084 3.467.811 6.936.811 3.47 0 6.594-.727 6.937-.811 2.23-.54 3.713-2.552 3.668-4.762 4.293-1.158 7.292-2.574 7.502-2.672 1.595-.77 2.271-2.686 1.501-4.279-.763-1.595-2.674-2.277-4.274-1.501zM234.353 168.702c-6.749 0-12.242-5.491-12.242-12.237 0-2.656-2.155-4.811-4.811-4.811s-4.808 2.155-4.808 4.811c0 6.749-5.492 12.237-12.241 12.237s-12.242-5.491-12.242-12.237c0-2.656-2.155-4.811-4.811-4.811s-4.811 2.155-4.811 4.811c0 6.749-5.489 12.237-12.237 12.237-2.656 0-4.811 2.155-4.811 4.811s2.155 4.811 4.811 4.811c6.892 0 13.041-3.213 17.05-8.216 4.012 5 10.159 8.216 17.053 8.216 6.895 0 13.041-3.213 17.049-8.216 4.012 5 10.158 8.216 17.053 8.216 2.655 0 4.811-2.155 4.811-4.811-.003-2.657-2.158-4.811-4.813-4.811z"/></g></svg>