<svg xmlns="http://www.w3.org/2000/svg" viewBox="0 152 612 524" enable-background="new 0 152 612 524"><path fill="#FDD900" d="M263.4 208.1c-34.1 0-61.9 27.8-61.9 61.9 0 21.2 13.7 36.6 24.8 49.2 7.2 8.3 13.5 15.3 14.3 21.6v.2c0 .2 0 .3.2.5 0 .2 0 .3.2.3 0 .2.2.3.2.3 0 .2.2.3.2.3l.2.3.3.3.3.3.3.3.3.2c.2.2.3.2.5.2h.2c.5.2 9.9 4.2 20.4 4.2 10.5 0 20-4.1 20.4-4.2l1.1-.6.2-.2c.3-.3.6-.6.8-.9 0 0 0-.2.2-.2l.5-1.2v-.2c.8-6.3 7.1-13.5 14.3-21.6 11-12.5 24.8-28.1 24.8-49.2-1-34-28.8-61.8-62.8-61.8zm31 105.7c-7.4 8.3-13.8 15.6-15.6 23.6-3 1.1-9 2.9-15.5 2.9-6.3 0-12.5-1.8-15.5-2.9-2-7.8-8.3-15.2-15.6-23.6-10.7-12-22.8-25.8-22.8-44 0-29.7 24.2-53.9 53.9-53.9s53.9 24.2 53.9 53.9c.1 18.2-12.1 32-22.8 44zm-15 34.5c-.2 0-7.8 3-16.1 3s-15.9-3-16.1-3c-1.4-.6-2.9.2-3.5 1.5-.6 1.4.2 2.9 1.5 3.5.3.2 8.7 3.3 17.9 3.3s17.6-3.3 17.9-3.3c1.4-.6 2.1-2.1 1.5-3.5-.2-1.3-1.7-2.1-3.1-1.5zm-.6 8s-7.7 3-15.5 3-15.3-3-15.5-3c-1.4-.6-2.9.2-3.5 1.5-.6 1.4.2 2.9 1.5 3.5.3.2 8.6 3.5 17.4 3.5 8.9 0 17.1-3.3 17.4-3.5 1.4-.6 2-2.1 1.5-3.5-.4-1.4-1.9-2.1-3.3-1.5zm-1.3 7.9s-6.9 3-14 3l-14-3c-1.4-.6-2.9 0-3.5 1.4-.6 1.4 0 2.9 1.4 3.5.3.2 8 3.5 16.1 3.5 8.3 0 15.8-3.3 16.1-3.5 1.4-.6 2-2.1 1.4-3.5-.7-1.4-2.3-2-3.5-1.4zm-1.5 8s-6.2 3-12.6 3c-6.5 0-12.6-2.9-12.6-3-1.4-.6-2.9 0-3.5 1.2-.6 1.4-.2 2.9 1.2 3.5.2.2 2.7 1.2 6.2 2.3 0 1.8 1.2 3.5 3 3.9.3 0 2.9.6 5.7.6s5.4-.6 5.7-.6c1.8-.5 3-2.1 3-3.9 3.6-.9 6-2.1 6.2-2.3 1.4-.6 1.8-2.3 1.2-3.5-.7-1.3-2.2-1.8-3.5-1.2zm15.4-104.1c-5.6 0-10.1-4.5-10.1-10.1 0-2.3-1.8-3.9-3.9-3.9-2.3 0-3.9 1.8-3.9 3.9 0 5.6-4.5 10.1-10.1 10.1s-10.1-4.5-10.1-10.1c0-2.3-1.8-3.9-3.9-3.9-2.1 0-3.9 1.8-3.9 3.9 0 5.6-4.5 10.1-10.1 10.1-2.3 0-3.9 1.8-3.9 3.9 0 2.3 1.8 3.9 3.9 3.9 5.7 0 10.7-2.7 14-6.8 3.3 4.1 8.4 6.8 14 6.8 5.7 0 10.7-2.7 14-6.8 3.3 4.1 8.4 6.8 14 6.8 2.3 0 3.9-1.8 3.9-3.9 0-2-1.6-3.9-3.9-3.9zm270.5 73.6c-13.7 0-24.8 11.1-24.8 24.8 0 8.4 5.6 14.7 9.9 19.7 2.9 3.3 5.4 6.2 5.7 8.7v.6s0 .2.2.2c0 0 0 .2.2.2l.2.2s.2 0 .2.2c0 0 .2 0 .2.2 0 0 .2 0 .2.2.2 0 3.9 1.7 8.1 1.7s8-1.7 8.1-1.7.3-.2.5-.3l.3-.5c.2-.2.2-.3.2-.5.3-2.6 2.9-5.4 5.7-8.7 4.4-5 9.9-11.3 9.9-19.7-.1-14.3-11.2-25.3-24.8-25.3zm12.4 42.2c-3 3.3-5.6 6.3-6.3 9.5-1.2.5-3.6 1.2-6.2 1.2s-5-.8-6.2-1.2c-.8-3.2-3.3-6-6.3-9.5-4.2-4.8-9.2-10.4-9.2-17.6 0-11.9 9.6-21.5 21.5-21.5s21.5 9.6 21.5 21.5c.4 7.3-4.4 12.8-8.8 17.6zm-6 13.8s-3.2 1.2-6.5 1.2-6.3-1.2-6.5-1.2c-.6-.2-1.2 0-1.4.6-.2.6 0 1.2.6 1.4.2 0 3.5 1.4 7.2 1.4s7.1-1.4 7.2-1.4c.6-.2.8-.8.6-1.4 0-.6-.7-.9-1.2-.6zm-.3 3.2s-3 1.2-6.2 1.2l-6.2-1.2c-.6-.2-1.2 0-1.4.6s0 1.2.6 1.4c.2 0 3.5 1.4 6.9 1.4 3.6 0 6.8-1.4 6.9-1.4.6-.2.8-.9.6-1.4 0-.6-.6-.8-1.2-.6zm-.4 3.1s-2.7 1.2-5.6 1.2l-5.6-1.2c-.6-.3-1.2 0-1.4.6-.3.6 0 1.2.6 1.4.2 0 3.2 1.4 6.5 1.4s6.3-1.4 6.5-1.4c.6-.3.8-.9.6-1.4-.6-.6-1.2-.7-1.6-.6zm-.6 3.2s-2.4 1.2-5.1 1.2c-2.6 0-5-1.2-5.1-1.2-.5-.3-1.2 0-1.4.5-.3.6 0 1.2.5 1.4 0 0 1.1.5 2.4.9 0 .8.5 1.4 1.2 1.5.2 0 1.2.3 2.3.3s2.1-.3 2.3-.3c.8-.2 1.2-.9 1.2-1.5 1.4-.5 2.4-.9 2.4-.9.5-.3.8-.9.5-1.4 0-.5-.8-.7-1.2-.5zm6.1-41.6c-2.3 0-4.1-1.8-4.1-4.1 0-.9-.8-1.7-1.7-1.7s-1.7.8-1.7 1.7c0 2.3-1.8 4.1-4.1 4.1s-4.1-1.8-4.1-4.1c0-.9-.8-1.7-1.7-1.7-.9 0-1.7.8-1.7 1.7 0 2.3-1.8 4.1-4.1 4.1-.9 0-1.7.8-1.7 1.7 0 .9.8 1.7 1.7 1.7 2.3 0 4.4-1.1 5.6-2.7 1.4 1.7 3.3 2.7 5.6 2.7s4.4-1.1 5.6-2.7c1.4 1.7 3.3 2.7 5.6 2.7.9 0 1.7-.8 1.7-1.7.8-1 0-1.7-.9-1.7zm-383.6 63.4c-22.4 0-40.4 18.2-40.4 40.4 0 13.8 9 24 16.2 32.1 4.8 5.4 8.9 10.1 9.3 14.1v.8c0 .2 0 .2.2.3 0 .2 0 .2.2.2l.2.2.2.2.2.2.2.2.2.2.3.2c.3.2 6.5 2.7 13.4 2.7s13.1-2.6 13.4-2.7c.3-.2.5-.3.6-.5l.2-.2.5-.6v-.2l.3-.8c.5-4.2 4.5-8.9 9.3-14.1 7.2-8.1 16.2-18.3 16.2-32.1-.3-22.5-18.5-40.6-40.7-40.6zm20.3 69.2c-4.8 5.4-9 10.2-10.2 15.3-2 .6-6 1.8-10.1 1.8s-8.1-1.2-10.1-1.8c-1.2-5.1-5.4-9.9-10.2-15.3-7.1-8-14.9-16.8-14.9-28.8 0-19.5 15.8-35.3 35.3-35.3s35.3 15.8 35.3 35.3c-.1 12-8.1 21-15.1 28.8zm-10 22.6s-5.1 2-10.5 2-10.4-2-10.5-2c-.9-.3-2 .2-2.3 1.1s.2 2 1.1 2.3c.3.2 5.7 2.3 11.7 2.3s11.6-2.1 11.7-2.3c.9-.3 1.4-1.4 1.1-2.3-.3-.9-1.4-1.4-2.3-1.1zm-.3 5.2s-5 2-10.1 2l-10.1-2c-.9-.3-2 0-2.3.9-.3.9 0 2 .9 2.3.2.2 5.6 2.3 11.4 2.3 5.9 0 11.1-2.1 11.4-2.3.9-.3 1.4-1.4.9-2.3-.3-.8-1.2-1.2-2.1-.9zm-.9 5.2s-4.5 2-9.2 2c-4.7 0-9.2-2-9.2-2-.9-.5-2 0-2.3.9-.3.9 0 2 .9 2.3.2.2 5.1 2.3 10.5 2.3s10.4-2.1 10.5-2.3c.9-.5 1.2-1.4.9-2.3-.3-.9-1.2-1.2-2.1-.9zm-.9 5.3s-4.1 2-8.3 2c-4.2 0-8.3-2-8.3-2-.9-.5-2 0-2.3.8-.5.9 0 2 .8 2.3.2 0 1.7.8 4.1 1.5 0 1.2.8 2.3 2 2.6.2 0 1.8.5 3.8.5 1.8 0 3.6-.5 3.8-.5 1.2-.3 2-1.4 2-2.6 2.3-.6 3.9-1.4 4.1-1.5.9-.5 1.2-1.5.8-2.3-.7-1-1.7-1.3-2.5-.8zm10.1-68.2c-3.6 0-6.6-3-6.6-6.6 0-1.5-1.2-2.6-2.6-2.6-1.5 0-2.6 1.2-2.6 2.6 0 3.6-3 6.6-6.6 6.6-3.6 0-6.6-3-6.6-6.6 0-1.5-1.2-2.6-2.6-2.6s-2.6 1.2-2.6 2.6c0 3.6-3 6.6-6.6 6.6-1.5 0-2.6 1.2-2.6 2.6s1.2 2.6 2.6 2.6c3.8 0 7.1-1.8 9.2-4.4 2.1 2.7 5.4 4.4 9.2 4.4s7.1-1.8 9.2-4.4c2.1 2.7 5.4 4.4 9.2 4.4 1.5 0 2.6-1.2 2.6-2.6s-1.2-2.6-2.6-2.6z"/><path fill="#00FFCE" stroke="#fff" stroke-width="3" stroke-miterlimit="10" d="M432.1 547.4c-5.9-19.4-23.9-33.5-45.2-33.5-7.1 0-13.7 1.7-19.7 4.4-15.3-19.4-39-31.7-65.6-31.7-43.8 0-79.7 33.6-83.3 76.6-22.5 2.9-39.9 22.1-39.9 45.2 0 25.2 20.4 45.6 45.6 45.6h207.1c28.5 0 51.8-23.9 51.8-53.3 0-29.1-22.7-52.7-50.8-53.3zm-304.6-198.2c-2.4-8.1-9.9-14-18.8-14-2.9 0-5.7.6-8.1 1.8-6.3-8-16.2-13.2-27.2-13.2-18.2 0-33 14-34.7 31.8-9.3 1.2-16.5 9.2-16.5 18.8 0 10.5 8.6 18.9 18.9 18.9h85.9c11.9 0 21.5-9.9 21.5-22.1.1-11.9-9.3-21.7-21-22zm369-152.4c-3.3-10.8-13.2-18.6-25.1-18.6-3.9 0-7.5.9-11 2.4-8.6-10.7-21.6-17.6-36.3-17.6-24.3 0-44.3 18.6-46.2 42.5-12.5 1.5-22.1 12.2-22.1 25.1 0 14 11.4 25.4 25.4 25.4h114.9c15.9 0 28.7-13.2 28.7-29.6-.2-16.2-12.6-29.3-28.3-29.6z"/></svg>