<svg xmlns="http://www.w3.org/2000/svg" viewBox="0 0 400 400" enable-background="new 0 0 400 400"><path d="M338.7 81c0-11-9-20-20-20h-237.4c-11 0-20 9-20 20v57.7h277.3v-57.7zm-81.3 22.7c0 5.5-4.5 10-10 10h-95c-5.5 0-10-4.5-10-10v-4.8c0-5.5 4.5-10 10-10h95c5.5 0 10 4.5 10 10v4.8zm-196.4 53.3v166.2c0 11 9 20 20 20h238c11 0 20-9 20-20v-166.2h-278zm73.2 148.6c0 2.8-2.2 5-5 5h-10c-2.8 0-5-2.2-5-5v-107c0-2.8 2.2-5 5-5h10c2.8 0 5 2.2 5 5v107zm39 0c0 2.8-2.2 5-5 5h-10c-2.8 0-5-2.2-5-5v-70c0-2.8 2.2-5 5-5h10c2.8 0 5 2.2 5 5v70zm40 0c0 2.8-2.2 5-5 5h-10c-2.8 0-5-2.2-5-5v-84c0-2.8 2.2-5 5-5h10c2.8 0 5 2.2 5 5v84zm40 0c0 2.8-2.2 5-5 5h-11c-2.8 0-5-2.2-5-5v-104c0-2.8 2.2-5 5-5h11c2.8 0 5 2.2 5 5v104zm36 1c0 2.8-2.2 5-5 5h-8c-2.8 0-5-2.2-5-5v-73c0-2.8 2.2-5 5-5h8c2.8 0 5 2.2 5 5v73z" fill="#FF0086"/></svg>