<svg xmlns="http://www.w3.org/2000/svg" viewBox="0 130 612 488" enable-background="new 0 130 612 488"><path fill="#EC008C" d="M512.3 432.2c-.5-2.7-1.1-5.4-1.8-8.1l2.7-.8 1.8 8.3-2.7.6zm-4.1-16.1c-.8-2.6-1.7-5.3-2.7-7.8l2.7-1.1c.9 2.6 2 5.3 2.7 8l-2.7.9zm-5.7-15.4c-1.1-2.6-2.3-5-3.5-7.5l2.6-1.2 3.6 7.7-2.7 1zm-9.4-23.3c1.5 2.4 3 4.8 4.4 7.2l-2.4 1.4"/><path fill="#EC008C" d="M514.1 444.8l-.5-4.2 2.9-.3.5 4.2-2.9.3zm18.2-3.5l-34.2 2 18.2 16.2 16-18.2z"/><path fill="#FCD900" d="M50 381.3c.5 2.7 1.1 5.4 1.8 8.1l-2.7.8-1.8-8.3 2.7-.6zm3.9 16.1c.8 2.6 1.7 5.3 2.7 7.8l-2.7 1.1c-.9-2.6-2-5.3-2.7-8l2.7-.9zm5.7 15.4c1.1 2.6 2.3 5 3.5 7.5l-2.6 1.2-3.6-7.7c0 .1 2.7-1 2.7-1zm7.5 14.7c1.4 2.4 2.9 4.8 4.4 7.1l-2.4 1.5c-1.5-2.4-3-4.8-4.4-7.2l2.4-1.4zm9 13.8c1.7 2.3 3.3 4.4 5.1 6.5l-2.1 1.8c-1.8-2.1-3.5-4.4-5.3-6.6l2.3-1.7zm10.7 12.8c2 2 3.8 4.1 5.9 5.9l-2 2.1c-2-2-4.1-3.9-5.9-6l2-2zm11.8 11.4c2.1 1.8 4.2 3.5 6.5 5.3l-1.7 2.3c-2.3-1.7-4.5-3.5-6.6-5.3l1.8-2.3zm13.1 10.1l6.9 4.5-1.5 2.4c-2.4-1.5-4.8-3-7.1-4.5l1.7-2.4zm-63.5-106.8l.5 4.2-2.9.3-.5-4.2 2.9-.3zm-18.3 3.3l34.2-2-18.2-16.1-16 18.1z"/><path fill="#EC008C" d="M208.3 189.2c-5.9-.5-12-.8-18.3-.8-23.3 0-37.8 4.2-43.7 12.5-5.9-8.3-20.4-12.5-43.7-12.5-6.3 0-12.5.3-18.3.8h-.9c-.5.2-.9.2-1.5.2h-.2c-.5.2-1.1.2-1.5.2h-.5c-.3 0-.6.2-1.1.2l-1.1.2c-11.7 1.2-20.4 2.7-20.6 2.7l-.8.2-2.1 2.6h-15.4v137.5l2.1-.2c.3 0 35.7-2.3 49.5-3.8l.6-.2c14-1.5 31.4-3.5 38.9 2.6l.6.5h31.5l.6-.5c7.5-6.2 26-4.1 39.5-2.6h.2c13.8 1.7 49.2 3.8 49.5 3.8l2.3.2v-137.5h-15.6l-2.1-2.6-.8-.2c-.2 0-8.7-1.5-20.6-2.7m-164.2 16.4l5.1-6.3v106.9l-5.1 8.6v-109.2zm89.9 113.4c-1.4-.5-15-5-34.5-5-6.3 0-12.6.5-18.8 1.5-20 3.2-30.6 3.8-35.6 3.8l6.3-10.5c.2 0 11-4.8 47-5 23.1 0 33 9.5 37.1 15.5l-1.5-.3zm3.6-2.4c-4.8-6.8-15.6-15.9-38.7-15.9h-.3c-28.1 0-41.3 3-46.1 4.4v-109.2c5.1-.9 24.3-3.8 43.4-3.8 24 0 38.3 4.5 41.7 13.2v111.3zm4.1-111.3c3.3-8.7 17.7-13.2 41.7-13.2 19.1 0 38.3 3 43.4 3.8v109.2c-5-1.4-18.2-4.2-45.9-4.4h-.8c-23.4 0-33.9 8.9-38.4 15.5v-110.9zm56.9 110.2c-6.2-.9-12.5-1.5-18.8-1.5-19.5 0-33.2 4.5-34.5 5l-1.8.4c3.6-6.2 13.2-15.8 37.4-15.6 33.2.3 45.2 4.2 46.8 4.8l6.3 10.7c-4.8 0-15.4-.6-35.4-3.8zm36.6-.7l-5.1-8.6v-106.9l5.1 6.3v109.2zm-104.6-99c-16.7-13.7-68.9-4.4-69.4-4.4l-.5-3.3c2.3-.5 54.1-9.6 71.8 5l-1.9 2.7zm0 7.4c-16.7-13.7-68.9-4.4-69.4-4.4l-.5-3.3c2.3-.5 54.1-9.6 71.8 5l-1.9 2.7zm0 7.3c-16.7-13.7-68.9-4.4-69.4-4.4l-.5-3.3c2.3-.5 54.1-9.6 71.8 5l-1.9 2.7zm0 7.4c-16.7-13.7-68.9-4.4-69.4-4.4l-.5-3.3c2.3-.5 54.1-9.6 71.8 5l-1.9 2.7zm0 7.4c-16.7-13.7-68.9-4.4-69.4-4.4l-.5-3.3c2.3-.5 54.1-9.6 71.8 5l-1.9 2.7zm0 7.3c-16.7-13.7-68.9-4.4-69.4-4.4l-.5-3.3c2.3-.5 54.1-9.6 71.8 5l-1.9 2.7zm0 7.4c-16.8-13.7-68.9-4.5-69.5-4.4l-.5-3.3c2.3-.5 54.1-9.6 71.8 5l-1.8 2.7zm0 7.2c-16.8-13.7-68.9-4.4-69.5-4.2l-.5-3.3c2.3-.5 54.1-9.6 71.8 5l-1.8 2.5zm0 7.3c-16.7-13.7-68.9-4.4-69.4-4.4l-.5-3.3c2.3-.5 54.1-9.6 71.8 5l-1.9 2.7zm0 7.4c-16.7-13.7-68.9-4.4-69.4-4.4l-.5-3.3c2.3-.5 54.1-9.6 71.8 5l-1.9 2.7zm0 7.3c-16.7-13.7-68.9-4.4-69.4-4.4l-.5-3.3c2.3-.5 54.1-9.6 71.8 5l-1.9 2.7zm0 7.4c-16.7-13.7-68.9-4.4-69.4-4.4l-.5-3.3c2.3-.5 54.1-9.6 71.8 5l-1.9 2.7zm18.5-80.8c16.7-13.7 68.9-4.4 69.4-4.4l.5-3.3c-2.3-.5-54.1-9.6-71.8 5l1.9 2.7zm0 7.4c16.7-13.7 68.9-4.4 69.4-4.4l.5-3.3c-2.3-.5-54.1-9.6-71.8 5l1.9 2.7zm0 7.3c16.7-13.7 68.9-4.4 69.4-4.4l.5-3.3c-2.3-.5-54.1-9.6-71.8 5l1.9 2.7zm0 7.4c16.7-13.7 68.9-4.4 69.4-4.4l.5-3.3c-2.3-.5-54.1-9.6-71.8 5l1.9 2.7zm0 7.4c16.7-13.7 68.9-4.4 69.4-4.4l.5-3.3c-2.3-.5-54.1-9.6-71.8 5l1.9 2.7zm0 7.3c16.7-13.7 68.9-4.4 69.4-4.4l.5-3.3c-2.3-.5-54.1-9.6-71.8 5l1.9 2.7zm0 7.4c16.7-13.7 68.9-4.4 69.4-4.4l.5-3.3c-2.3-.5-54.1-9.6-71.8 5l1.9 2.7zm0 7.2c16.7-13.7 68.9-4.4 69.4-4.4l.5-3.3c-2.3-.5-54.1-9.6-71.8 5l1.9 2.7zm0 7.3c16.7-13.7 68.9-4.4 69.4-4.4l.5-3.3c-2.3-.5-54.1-9.6-71.8 5l1.9 2.7zm0 7.4c16.7-13.7 68.9-4.4 69.4-4.4l.5-3.3c-2.3-.5-54.1-9.6-71.8 5l1.9 2.7zm0 7.3c16.7-13.7 68.9-4.4 69.4-4.4l.5-3.3c-2.3-.5-54.1-9.6-71.8 5l1.9 2.7zm0 7.4c16.7-13.7 68.9-4.4 69.4-4.4l.5-3.3c-2.3-.5-54.1-9.6-71.8 5l1.9 2.7zm405.5 207.1c-2.7-.2-5.6-.3-8.4-.3-10.7 0-17.4 2-20.1 5.7-2.7-3.8-9.5-5.7-20.1-5.7-2.9 0-5.7.2-8.4.3h-2.9c-5.4.6-9.3 1.2-9.5 1.2h-.3l-.9 1.2h-7.2v63.2h1.1c.2 0 16.4-1.1 22.8-1.8h.3c6.5-.8 14.4-1.7 17.9 1.2l.3.2h14.6l.3-.2c3.5-2.9 11.9-1.8 18.2-1.2 6.3.8 22.7 1.7 22.8 1.8h1.1v-63.2h-7.2l-.9-1.2h-.3s-4.1-.8-9.5-1.2m-76.2 7.6l2.4-2.9v49.1l-2.4 3.9v-50.1zm41.3 52.1c-.6-.2-6.9-2.3-15.8-2.3-2.9 0-5.9.2-8.6.6-9.2 1.5-14.1 1.7-16.4 1.8l2.9-4.8s5-2.3 21.6-2.3c10.7 0 15.2 4.4 17 7.2l-.7-.2zm1.6-1c-2.3-3.2-7.2-7.4-17.9-7.4h-.2c-12.9 0-18.9 1.4-21.2 2v-50.1c2.3-.5 11.3-1.8 20-1.8 11 0 17.6 2.1 19.2 6v51.3h.1zm2-51.2c1.5-3.9 8.1-6 19.2-6 8.7 0 17.6 1.4 20 1.8v50.1c-2.3-.6-8.3-2-21-2h-.3c-10.8 0-15.6 4.1-17.7 7.2-.2-.1-.2-51.1-.2-51.1zm26.1 50.7c-2.9-.5-5.7-.6-8.6-.6-9 0-15.3 2.1-15.8 2.3l-.8.2c1.7-2.9 6-7.2 17.1-7.2 15.3.2 20.7 2 21.5 2.3l2.9 4.8c-2.2-.1-7.1-.4-16.3-1.8zm16.8-.4l-2.4-3.9v-49.1l2.4 2.9v50.1zm-48-45.4c-7.7-6.3-31.7-2-31.8-2l-.3-1.5c1.1-.2 24.8-4.4 33 2.3l-.9 1.2zm0 3.3c-7.7-6.3-31.7-2-31.8-2l-.3-1.5c1.1-.2 24.8-4.4 33 2.3l-.9 1.2zm0 3.5c-7.7-6.3-31.7-2-31.8-2l-.3-1.5c1.1-.2 24.8-4.4 33 2.3l-.9 1.2zm0 3.3c-7.7-6.3-31.7-2.1-31.8-2l-.3-1.5c1.1-.2 24.8-4.4 33 2.3l-.9 1.2zm0 3.4c-7.7-6.3-31.7-2-31.8-2l-.3-1.5c1.1-.2 24.8-4.4 33 2.3l-.9 1.2zm0 3.3c-7.7-6.3-31.7-2-31.8-2l-.3-1.5c1.1-.2 24.8-4.4 33 2.3l-.9 1.2zm0 3.3c-7.7-6.3-31.7-2-31.8-2l-.3-1.5c1.1-.2 24.8-4.4 33 2.3l-.9 1.2zm0 3.5c-7.7-6.3-31.7-2.1-31.8-2l-.3-1.5c1.1-.2 24.8-4.4 33 2.3l-.9 1.2zm0 3.3c-7.7-6.3-31.7-2-31.8-2l-.3-1.5c1.1-.2 24.8-4.4 33 2.3l-.9 1.2zm0 3.4c-7.7-6.3-31.7-2.1-31.8-2l-.3-1.5c1.1-.2 24.8-4.4 33 2.3l-.9 1.2zm0 3.4c-7.7-6.3-31.7-2-31.8-2l-.3-1.5c1.1-.2 24.8-4.4 33 2.3l-.9 1.2zm0 3.4c-7.7-6.3-31.7-2-31.8-2l-.3-1.5c1.1-.2 24.8-4.4 33 2.3l-.9 1.2zm8.5-37.1c7.7-6.3 31.7-2 31.8-2l.3-1.5c-1.1-.2-24.8-4.4-33 2.3l.9 1.2zm0 3.3c7.7-6.3 31.7-2 31.8-2l.3-1.5c-1.1-.2-24.8-4.4-33 2.3l.9 1.2zm0 3.5c7.7-6.3 31.7-2 31.8-2l.3-1.5c-1.1-.2-24.8-4.4-33 2.3l.9 1.2zm0 3.3c7.7-6.3 31.7-2.1 31.8-2l.3-1.5c-1.1-.2-24.8-4.4-33 2.3l.9 1.2zm0 3.4c7.7-6.3 31.7-2 31.8-2l.3-1.5c-1.1-.2-24.8-4.4-33 2.3l.9 1.2zm0 3.3c7.7-6.3 31.7-2 31.8-2l.3-1.5c-1.1-.2-24.8-4.4-33 2.3l.9 1.2zm0 3.3c7.7-6.3 31.7-2 31.8-2l.3-1.5c-1.1-.2-24.8-4.4-33 2.3l.9 1.2zm0 3.5c7.7-6.3 31.7-2.1 31.8-2l.3-1.5c-1.1-.2-24.8-4.4-33 2.3l.9 1.2zm0 3.3c7.7-6.3 31.7-2 31.8-2l.3-1.5c-1.1-.2-24.8-4.4-33 2.3l.9 1.2zm0 3.4c7.7-6.3 31.7-2.1 31.8-2l.3-1.5c-1.1-.2-24.8-4.4-33 2.3l.9 1.2zm0 3.4c7.7-6.3 31.7-2 31.8-2l.3-1.5c-1.1-.2-24.8-4.4-33 2.3l.9 1.2zm0 3.4c7.7-6.3 31.7-2 31.8-2l.3-1.5c-1.1-.2-24.8-4.4-33 2.3l.9 1.2z"/><path fill="#00FFCE" d="M464.9 232.3c-4.1-.3-8.4-.6-12.9-.6-16.4 0-26.6 3-30.6 8.9-4.1-5.9-14.4-8.9-30.6-8.9-4.4 0-8.9.2-12.9.6h-.6c-.3 0-.6.2-1.1.2h-.2l-1.1.2h-.3c-.2 0-.5 0-.8.2l-.8.2c-8.3.8-14.3 2-14.4 2l-.6.2-1.5 1.8h-11v96.5l1.5-.2c.3 0 25.1-1.5 34.8-2.7h.5c9.8-1.1 22.1-2.4 27.3 1.8l.5.3h22.2l.5-.3c5.3-4.4 18.2-2.9 27.6-1.8 9.8 1.1 34.5 2.7 34.8 2.7l1.5.2v-96.8h-11l-1.5-1.8-.6-.2c-.2 0-6.2-1.1-14.4-2m-114.9 11.4l3.6-4.5v75.1l-3.6 6v-76.6zm63.1 79.6c-.9-.3-10.5-3.5-24.2-3.5-4.5 0-8.9.3-13.2 1.1-14 2.3-21.5 2.6-24.9 2.7l4.5-7.4s7.7-3.3 33-3.5c16.2 0 23.3 6.6 26 11l-1.2-.4zm2.6-1.7c-3.5-4.8-11-11.1-27.2-11.1h-.2c-19.7 0-29 2.1-32.3 3v-76.6c3.6-.6 17.1-2.7 30.5-2.7 16.8 0 26.9 3.2 29.3 9.3v78.1h-.1zm2.8-78c2.4-6 12.5-9.3 29.3-9.3 13.4 0 26.9 2.1 30.5 2.7v76.5c-3.5-1.1-12.8-2.9-32.3-3h-.5c-16.4 0-23.7 6.2-27 11v-77.9zm40 77.3c-4.4-.6-8.7-1.1-13.2-1.1-13.7 0-23.3 3.2-24.2 3.5l-1.2.3c2.6-4.4 9.3-11.1 26.1-11 23.3.2 31.7 3 32.9 3.5l4.5 7.5c-3.5-.2-11-.5-24.9-2.7zm25.6-.6l-3.6-6v-75.1l3.6 4.5v76.6zm-73.4-69.4c-11.7-9.6-48.3-3.2-48.6-3l-.3-2.3c1.5-.3 38-6.8 50.4 3.5l-1.5 1.8zm0 5.1c-11.7-9.6-48.3-3.2-48.6-3l-.3-2.3c1.5-.3 38-6.8 50.4 3.5l-1.5 1.8zm0 5.3c-11.7-9.6-48.3-3.2-48.6-3l-.3-2.3c1.5-.3 38-6.8 50.4 3.5l-1.5 1.8zm0 5.1c-11.7-9.6-48.3-3.2-48.6-3l-.3-2.3c1.5-.3 38-6.8 50.4 3.5l-1.5 1.8zm0 5.1c-11.7-9.6-48.3-3.2-48.6-3l-.3-2.3c1.5-.3 38-6.8 50.4 3.5l-1.5 1.8zm0 5.2c-11.7-9.6-48.3-3.2-48.6-3l-.3-2.3c1.5-.3 38-6.8 50.4 3.5l-1.5 1.8zm0 5.1c-11.7-9.6-48.3-3.2-48.6-3l-.3-2.3c1.5-.3 38-6.8 50.4 3.5l-1.5 1.8zm0 5.1c-11.7-9.6-48.3-3.2-48.6-3l-.3-2.3c1.5-.3 38-6.8 50.4 3.5l-1.5 1.8zm0 5.3c-11.7-9.6-48.3-3.2-48.6-3l-.3-2.3c1.5-.3 38-6.8 50.4 3.5l-1.5 1.8zm0 5.1c-11.7-9.6-48.3-3.2-48.6-3l-.3-2.3c1.5-.3 38-6.8 50.4 3.5l-1.5 1.8zm0 5.1c-11.7-9.6-48.3-3.2-48.6-3l-.3-2.3c1.5-.3 38-6.8 50.4 3.5l-1.5 1.8zm0 5.1c-11.7-9.6-48.3-3.2-48.6-3l-.3-2.3c1.5-.3 38-6.8 50.4 3.5l-1.5 1.8zm12.9-56.6c11.7-9.6 48.3-3.2 48.6-3l.3-2.3c-1.5-.3-38-6.8-50.4 3.5l1.5 1.8zm0 5.1c11.7-9.6 48.3-3.2 48.6-3l.3-2.3c-1.5-.3-38-6.8-50.4 3.5l1.5 1.8zm0 5.3c11.7-9.6 48.3-3.2 48.6-3l.3-2.3c-1.5-.3-38-6.8-50.4 3.5l1.5 1.8zm0 5.1c11.7-9.6 48.3-3.2 48.6-3l.3-2.3c-1.5-.3-38-6.8-50.4 3.5l1.5 1.8zm0 5.1c11.7-9.6 48.3-3.2 48.6-3l.3-2.3c-1.5-.3-38-6.8-50.4 3.5l1.5 1.8zm0 5.2c11.7-9.6 48.3-3.2 48.6-3l.3-2.3c-1.5-.3-38-6.8-50.4 3.5l1.5 1.8zm0 5.1c11.7-9.6 48.3-3.2 48.6-3l.3-2.3c-1.5-.3-38-6.8-50.4 3.5l1.5 1.8zm0 5.1c11.7-9.6 48.3-3.2 48.6-3l.3-2.3c-1.5-.3-38-6.8-50.4 3.5l1.5 1.8zm0 5.3c11.7-9.6 48.3-3.2 48.6-3l.3-2.3c-1.5-.3-38-6.8-50.4 3.5l1.5 1.8zm0 5.1c11.7-9.6 48.3-3.2 48.6-3l.3-2.3c-1.5-.3-38-6.8-50.4 3.5l1.5 1.8zm0 5.1c11.7-9.6 48.3-3.2 48.6-3l.3-2.3c-1.5-.3-38-6.8-50.4 3.5l1.5 1.8zm0 5.1c11.7-9.6 48.3-3.2 48.6-3l.3-2.3c-1.5-.3-38-6.8-50.4 3.5l1.5 1.8z"/><path fill="#FDD900" d="M378.4 408.6c-8.1-.6-16.8-1.1-25.7-1.1-32.4 0-53 5.9-61.1 17.4-8.1-11.6-28.7-17.4-61.1-17.4-8.7 0-17.6.5-25.7 1.1h-1.2c-.6.2-1.4.2-2.1.2h-.2c-.8.2-1.4.2-2.1.2h-.6c-.5.2-.9.2-1.4.2-.5.2-1.1.2-1.5.2-16.5 1.7-28.5 3.8-28.7 3.8l-1.1.2-2.9 3.6h-21.9v192.3l3-.2c.5 0 49.8-3.2 69.2-5.3l.9-.2c19.5-2.1 43.8-5 54.4 3.6l.8.6h44.1l.8-.6c10.5-8.6 36.3-5.7 55.1-3.5h.2c19.4 2.3 68.8 5.3 69.2 5.3l3 .2v-192.2h-21.8l-2.9-3.6-1.1-.2c-.2 0-12.2-2.1-28.7-3.8m-229.2 22.9l7.1-8.9v149.4l-7.1 11.9v-152.4zm125.5 158.4c-1.8-.6-20.9-6.9-48.2-6.9-8.9 0-17.7.8-26.3 2-27.9 4.4-42.8 5.3-49.7 5.3l8.9-14.7c.2 0 15.3-6.8 65.8-6.9 32.4-.2 46.2 13.2 51.8 21.8l-2.3-.6zm5.1-3.4c-6.8-9.5-21.9-22.2-54.2-22.2h-.3c-39.3.2-57.7 4.1-64.4 6.2v-152.8c7.1-1.2 34.1-5.3 60.7-5.3 33.5 0 53.6 6.5 58.3 18.5v155.6h-.1zm5.7-155.6c4.7-12.2 24.8-18.5 58.3-18.5 26.6 0 53.6 4.1 60.7 5.3v152.5c-6.9-2-25.4-5.9-64.1-6h-.9c-32.7 0-47.3 12.3-53.8 21.8-.2-.1-.2-155.1-.2-155.1zm79.6 154.1c-8.6-1.4-17.4-2-26.3-2-27.3 0-46.4 6.3-48.2 6.9l-2.6.6c5.1-8.6 18.5-22.1 52.1-21.8 46.4.3 63.2 5.9 65.5 6.8l8.9 14.9c-6.6-.2-21.5-1.1-49.4-5.4zm51.1-1.1l-7.2-11.9v-149.3l7.2 8.9v152.3zm-146.3-138.1c-23.4-19.1-96.2-6.2-97-6l-.8-4.7c3-.6 75.5-13.4 100.3 6.9l-2.5 3.8zm0 10.2c-23.4-19.1-96.2-6.2-97-6l-.8-4.7c3-.6 75.5-13.4 100.3 6.9l-2.5 3.8zm0 10.2c-23.4-19.1-96.2-6.2-97-6l-.8-4.7c3-.6 75.5-13.4 100.3 6.9l-2.5 3.8zm0 10.4c-23.4-19.1-96.2-6.2-97-6l-.8-4.7c3-.6 75.5-13.4 100.3 6.9l-2.5 3.8zm0 10.2c-23.4-19.1-96.2-6.2-97-6l-.8-4.7c3-.6 75.5-13.4 100.3 6.9l-2.5 3.8zm0 10.2c-23.4-19.1-96.2-6.2-97-6l-.8-4.7c3-.6 75.5-13.4 100.3 6.9l-2.5 3.8zm0 10.4c-23.4-19.1-96.2-6.2-97-6l-.8-4.7c3-.6 75.5-13.4 100.3 6.9l-2.5 3.8zm0 10.2c-23.4-19.1-96.2-6.2-97-6l-.8-4.7c3-.6 75.5-13.4 100.3 6.9l-2.5 3.8zm0 10.2c-23.4-19.1-96.2-6.2-97-6l-.8-4.7c3-.6 75.5-13.4 100.3 6.9l-2.5 3.8zm0 10.3c-23.4-19.1-96.2-6.2-97-6l-.8-4.7c3-.6 75.5-13.4 100.3 6.9l-2.5 3.8zm0 10.3c-23.4-19.1-96.2-6.2-97-6l-.8-4.7c3-.6 75.5-13.4 100.3 6.9l-2.5 3.8zm0 10.2c-23.4-19.1-96.2-6.2-97-6l-.8-4.7c3-.6 75.5-13.4 100.3 6.9l-2.5 3.8zm26-112.8c23.4-19.1 96.2-6.2 97-6l.8-4.7c-3-.6-75.5-13.4-100.3 6.9l2.5 3.8zm0 10.2c23.4-19.1 96.2-6.2 97-6l.8-4.7c-3-.6-75.5-13.4-100.3 6.9l2.5 3.8zm0 10.2c23.4-19.1 96.2-6.2 97-6l.8-4.7c-3-.6-75.5-13.4-100.3 6.9l2.5 3.8zm0 10.4c23.4-19.1 96.2-6.2 97-6l.8-4.7c-3-.6-75.5-13.4-100.3 6.9l2.5 3.8zm0 10.2c23.4-19.1 96.2-6.2 97-6l.8-4.7c-3-.6-75.5-13.4-100.3 6.9l2.5 3.8zm0 10.2c23.4-19.1 96.2-6.2 97-6l.8-4.7c-3-.6-75.5-13.4-100.3 6.9l2.5 3.8zm0 10.4c23.4-19.1 96.2-6.2 97-6l.8-4.7c-3-.6-75.5-13.4-100.3 6.9l2.5 3.8zm0 10.2c23.4-19.1 96.2-6.2 97-6l.8-4.7c-3-.6-75.5-13.4-100.3 6.9l2.5 3.8zm0 10.2c23.4-19.1 96.2-6.2 97-6l.8-4.7c-3-.6-75.5-13.4-100.3 6.9l2.5 3.8zm0 10.3c23.4-19.1 96.2-6.2 97-6l.8-4.7c-3-.6-75.5-13.4-100.3 6.9l2.5 3.8zm0 10.3c23.4-19.1 96.2-6.2 97-6l.8-4.7c-3-.6-75.5-13.4-100.3 6.9l2.5 3.8zm0 10.2c23.4-19.1 96.2-6.2 97-6l.8-4.7c-3-.6-75.5-13.4-100.3 6.9l2.5 3.8z"/></svg>