<svg xmlns="http://www.w3.org/2000/svg" width="400" height="400" viewBox="0 0 400 400"><linearGradient id="a" gradientUnits="userSpaceOnUse" x1="199.856" y1="61.711" x2="199.856" y2="341.711"><stop offset="0" stop-color="#9E2064"/><stop offset="1" stop-color="#90298D"/></linearGradient><path fill="url(#a)" d="M288.959 61.044h-178.204c-27.374 0-49.565 22.191-49.565 49.565v28.102h277.333v-28.102c0-27.374-22.191-49.565-49.564-49.565zm-31.602 42.667c0 5.522-4.478 10-10 10h-95c-5.523 0-10-4.478-10-10v-4.834c0-5.522 4.477-10 10-10h95c5.522 0 10 4.478 10 10v4.834z"/><linearGradient id="b" gradientUnits="userSpaceOnUse" x1="199.856" y1="61.711" x2="199.856" y2="341.712"><stop offset="0" stop-color="#9E2064"/><stop offset="1" stop-color="#90298D"/></linearGradient><path fill="url(#b)" d="M61.19 288.813c0 27.374 22.191 49.564 49.565 49.564h178.204c27.373 0 49.564-22.19 49.564-49.564v-137.102h-277.333v137.102zm207.611-62.658c0-2.762 2.238-5 5-5h7.5c2.762 0 5 2.238 5 5v72.5c0 2.762-2.238 5-5 5h-7.5c-2.762 0-5-2.238-5-5v-72.5zm-39.137-31.944c0-2.762 2.238-5 5-5h10.5c2.762 0 5 2.238 5 5v104.444c0 2.762-2.238 5-5 5h-10.5c-2.762 0-5-2.238-5-5v-104.444zm-39.136 20.556c0-2.762 2.238-5 5-5h10c2.762 0 5 2.238 5 5v83.889c0 2.762-2.238 5-5 5h-10c-2.762 0-5-2.238-5-5v-83.889zm-39.136 13.5c0-2.762 2.238-5 5-5h10c2.762 0 5 2.238 5 5v70.389c0 2.762-2.238 5-5 5h-10c-2.762 0-5-2.238-5-5v-70.389zm-39.136-37.056c0-2.762 2.238-5 5-5h9.5c2.762 0 5 2.238 5 5v107.444c0 2.762-2.238 5-5 5h-9.5c-2.762 0-5-2.238-5-5v-107.444z"/></svg>