<svg xmlns="http://www.w3.org/2000/svg" width="400" height="400" viewBox="0 0 400 400"><linearGradient id="a" gradientUnits="userSpaceOnUse" x1="200.415" y1="62" x2="200.415" y2="331.259"><stop offset="0" stop-color="#9E2064"/><stop offset="1" stop-color="#90298D"/></linearGradient><path fill="url(#a)" d="M289.518 338.803h-178.205c-27.374 0-49.564-22.19-49.564-49.564v-178.205c0-27.374 22.19-49.565 49.564-49.565h178.205c27.373 0 49.564 22.191 49.564 49.565v178.204c0 27.374-22.191 49.565-49.564 49.565z"/><g fill="#fff"><path d="M208.188 153.714c0 1.313-.468 2.465-1.409 3.457-.939 1.001-2.293 1.497-4.057 1.497h-10.932v44.501c0 1.537-.572 2.817-1.71 3.843-1.14 1.026-2.534 1.539-4.183 1.539-1.654 0-3.021-.565-4.102-1.709-1.081-1.14-1.623-2.36-1.623-3.673v-44.501h-10.932c-1.595 0-2.904-.48-3.929-1.45-1.024-.967-1.537-2.137-1.537-3.504 0-1.423.528-2.604 1.577-3.541 1.056-.944 2.351-1.41 3.889-1.41h33.481c1.595 0 2.904.483 3.93 1.452 1.024.969 1.537 2.135 1.537 3.499zM237.056 203.682c0 1.425-.455 2.589-1.365 3.503-.912.907-2.278 1.366-4.101 1.366h-6.576c-3.704 0-6.491-.687-8.37-2.057-3.019-2.168-4.527-6.137-4.527-11.897v-21.918h-1.452c-1.537 0-2.832-.385-3.886-1.155-1.053-.771-1.581-1.81-1.581-3.115 0-1.311.499-2.464 1.496-3.46.994-.996 2.318-1.497 3.971-1.497h1.452v-8.23c0-1.357.542-2.517 1.624-3.479 1.079-.958 2.361-1.441 3.843-1.441 1.422 0 2.69.496 3.802 1.486 1.11.987 1.663 2.135 1.663 3.435v8.23h7.005c1.709 0 3.032.472 3.973 1.41.939.941 1.409 2.093 1.409 3.461 0 1.195-.442 2.221-1.325 3.074s-2.234 1.282-4.057 1.282h-7.005v21.25c0 2.514.285 4.111.854 4.798.343.401 1.081.598 2.223.598h5.465c1.652 0 2.976.387 3.972 1.156s1.493 1.833 1.493 3.2zM164.842 229.916v3.345c0 2.31 1.872 4.182 4.182 4.182h6.968v-11.708h-6.968c-2.31-.001-4.182 1.871-4.182 4.181zM179.183 225.734h37.97v11.708h-37.97zM235.988 231.59l-16.084-5.856v11.708zM180.925 248.577c0-2.718-1.708-6.323-6.255-5.854-2.368.244-4.017 2.727-5.489 3.922-1.278 1.037-3.032.627-4.338-.156 0 2.508 3.294 7.943 9.828 7.943 4.44 0 6.254-2.619 6.254-5.855zM235.988 250.251v-3.349c0-2.309-1.805-4.18-4.033-4.18h-35.163v11.709h35.163c2.229.001 4.033-1.871 4.033-4.18zM180.531 242.723v.242c1.506 1.312 2.473 3.329 2.473 5.593 0 2.265-.967 4.282-2.473 5.592v.282h13.252v-11.709h-13.252zM258.973 102.816h-117.116c-7.912 0-14.325 6.545-14.325 14.616v165.405c0 8.071 6.413 14.617 14.325 14.617h117.116c7.912 0 14.326-6.546 14.326-14.617v-165.404c0-8.072-6.414-14.617-14.326-14.617zm.636 167.232c0 8.071-6.545 14.615-14.617 14.615h-89.156c-8.072 0-14.617-6.544-14.617-14.615v-139.825c0-8.07 6.545-14.615 14.617-14.615h89.156c8.072 0 14.617 6.545 14.617 14.615v139.825z"/></g></svg>