<svg xmlns="http://www.w3.org/2000/svg" viewBox="0 0 400 400" enable-background="new 0 0 400 400"><linearGradient id="a" gradientUnits="userSpaceOnUse" x1="200.415" y1="364.86" x2="200.415" y2="136.661"><stop offset="0" stop-color="#F27FAF"/><stop offset="1" stop-color="#ED1872"/></linearGradient><path fill="url(#a)" d="M81.7 61.5h243.3c7.7 0 14 6.3 14 14v249.3c0 7.7-6.3 14-14 14h-249.3c-7.7 0-14-6.3-14-14v-243.3c0-11.1 9-20 20-20z"/><g fill="#fff"><path d="M208.2 153.7c0 1.3-.5 2.5-1.4 3.5-.9 1-2.3 1.5-4.1 1.5h-10.9v44.5c0 1.5-.6 2.8-1.7 3.8s-2.5 1.5-4.2 1.5c-1.7 0-3-.6-4.1-1.7-1.1-1.1-1.6-2.4-1.6-3.7v-44.5h-10.9c-1.6 0-2.9-.5-3.9-1.4-1-1-1.5-2.1-1.5-3.5s.5-2.6 1.6-3.5c1.1-.9 2.4-1.4 3.9-1.4h33.5c1.6 0 2.9.5 3.9 1.5.9.9 1.4 2.1 1.4 3.4zM237.1 203.7c0 1.4-.5 2.6-1.4 3.5-.9.9-2.3 1.4-4.1 1.4h-6.6c-3.7 0-6.5-.7-8.4-2.1-3-2.2-4.5-6.1-4.5-11.9v-21.9h-1.5c-1.5 0-2.8-.4-3.9-1.2-1.1-.8-1.6-1.8-1.6-3.1s.5-2.5 1.5-3.5 2.3-1.5 4-1.5h1.5v-8.2c0-1.4.5-2.5 1.6-3.5s2.4-1.4 3.8-1.4 2.7.5 3.8 1.5c1.1 1 1.7 2.1 1.7 3.4v8.2h7c1.7 0 3 .5 4 1.4.9.9 1.4 2.1 1.4 3.5 0 1.2-.4 2.2-1.3 3.1s-2.2 1.3-4.1 1.3h-7v21.2c0 2.5.3 4.1.9 4.8.3.4 1.1.6 2.2.6h5.5c1.7 0 3 .4 4 1.2s1.5 1.8 1.5 3.2zM164.8 229.9v3.3c0 2.3 1.9 4.2 4.2 4.2h7v-11.7h-7c-2.3 0-4.2 1.9-4.2 4.2zM179.2 225.7h38v11.7h-38zM236 231.6l-16.1-5.9v11.7zM180.9 248.6c0-2.7-1.7-6.3-6.3-5.9-2.4.2-4 2.7-5.5 3.9-1.3 1-3 .6-4.3-.2 0 2.5 3.3 7.9 9.8 7.9 4.5.1 6.3-2.5 6.3-5.7zM236 250.3v-3.3c0-2.3-1.8-4.2-4-4.2h-35.2v11.7h35.2c2.2-.1 4-1.9 4-4.2zM180.5 242.7v.2c1.5 1.3 2.5 3.3 2.5 5.6s-1 4.3-2.5 5.6v.3h13.3v-11.7h-13.3zM259 102.8h-117.1c-7.9 0-14.3 6.5-14.3 14.6v165.4c0 8.1 6.4 14.6 14.3 14.6h117.1c7.9 0 14.3-6.5 14.3-14.6v-165.4c0-8-6.4-14.6-14.3-14.6zm.6 167.2c0 8.1-6.5 14.6-14.6 14.6h-89.2c-8.1 0-14.6-6.5-14.6-14.6v-139.8c0-8.1 6.5-14.6 14.6-14.6h89.2c8.1 0 14.6 6.5 14.6 14.6v139.8z"/></g></svg>