<?xml version="1.0" encoding="utf-8"?>
<!-- Generator: Adobe Illustrator 15.1.0, SVG Export Plug-In . SVG Version: 6.00 Build 0)  -->
<!DOCTYPE svg PUBLIC "-//W3C//DTD SVG 1.1//EN" "http://www.w3.org/Graphics/SVG/1.1/DTD/svg11.dtd">
<svg version="1.1" id="Layer_1" xmlns="http://www.w3.org/2000/svg" xmlns:xlink="http://www.w3.org/1999/xlink" x="0px" y="0px"
	 width="400px" height="400px" viewBox="0 0 400 400" enable-background="new 0 0 400 400" xml:space="preserve">
<linearGradient id="SVGID_1_" gradientUnits="userSpaceOnUse" x1="200.4155" y1="364.8604" x2="200.4155" y2="136.6607">
	<stop  offset="0" style="stop-color:#C46864"/>
	<stop  offset="0.0077" style="stop-color:#C56766"/>
	<stop  offset="0.0677" style="stop-color:#CD5A6F"/>
	<stop  offset="0.1354" style="stop-color:#D44D77"/>
	<stop  offset="0.2122" style="stop-color:#D93F7C"/>
	<stop  offset="0.3018" style="stop-color:#DE3280"/>
	<stop  offset="0.4127" style="stop-color:#E12582"/>
	<stop  offset="0.5682" style="stop-color:#E31C84"/>
	<stop  offset="1" style="stop-color:#E41984"/>
</linearGradient>
<rect x="61.748" y="61.469" fill="url(#SVGID_1_)" width="277.334" height="277.334"/>
<g>
	<g>
		<path fill="#FFFFFF" d="M208.188,153.714c0,1.313-0.468,2.465-1.409,3.457c-0.939,1.001-2.293,1.497-4.057,1.497H191.79v44.501
			c0,1.537-0.572,2.817-1.71,3.843c-1.14,1.026-2.534,1.539-4.183,1.539c-1.654,0-3.021-0.565-4.102-1.709
			c-1.081-1.14-1.623-2.36-1.623-3.673v-44.501H169.24c-1.595,0-2.904-0.48-3.929-1.45c-1.024-0.967-1.537-2.137-1.537-3.504
			c0-1.423,0.528-2.604,1.577-3.541c1.056-0.944,2.351-1.41,3.889-1.41h33.481c1.595,0,2.904,0.483,3.93,1.452
			C207.675,151.184,208.188,152.35,208.188,153.714z"/>
		<path fill="#FFFFFF" d="M237.056,203.682c0,1.425-0.455,2.589-1.365,3.503c-0.912,0.907-2.278,1.366-4.101,1.366h-6.576
			c-3.704,0-6.491-0.687-8.37-2.057c-3.019-2.168-4.527-6.137-4.527-11.897v-21.918h-1.452c-1.537,0-2.832-0.385-3.886-1.155
			c-1.053-0.771-1.581-1.81-1.581-3.115c0-1.311,0.499-2.464,1.496-3.46c0.994-0.996,2.318-1.497,3.971-1.497h1.452v-8.23
			c0-1.357,0.542-2.517,1.624-3.479c1.079-0.958,2.361-1.441,3.843-1.441c1.422,0,2.69,0.496,3.802,1.486
			c1.11,0.987,1.663,2.135,1.663,3.435v8.23h7.005c1.709,0,3.032,0.472,3.973,1.41c0.939,0.941,1.409,2.093,1.409,3.461
			c0,1.195-0.442,2.221-1.325,3.074s-2.234,1.282-4.057,1.282h-7.005v21.25c0,2.514,0.285,4.111,0.854,4.798
			c0.343,0.401,1.081,0.598,2.223,0.598h5.465c1.652,0,2.976,0.387,3.972,1.156S237.056,202.315,237.056,203.682z"/>
	</g>
	<g>
		<g>
			<path fill="#FFFFFF" d="M164.842,229.916v3.345c0,2.31,1.872,4.182,4.182,4.182h6.968v-11.708h-6.968
				C166.714,225.734,164.842,227.606,164.842,229.916z"/>
			<rect x="179.183" y="225.734" fill="#FFFFFF" width="37.97" height="11.708"/>
			<polygon fill="#FFFFFF" points="235.988,231.59 219.904,225.734 219.904,237.442 			"/>
		</g>
		<g>
			<path fill="#FFFFFF" d="M180.925,248.577c0-2.718-1.708-6.323-6.255-5.854c-2.368,0.244-4.017,2.727-5.489,3.922
				c-1.278,1.037-3.032,0.627-4.338-0.156c0,2.508,3.294,7.943,9.828,7.943C179.111,254.432,180.925,251.813,180.925,248.577z"/>
			<path fill="#FFFFFF" d="M235.988,250.251v-3.349c0-2.309-1.805-4.18-4.033-4.18h-35.163v11.709h35.163
				C234.184,254.432,235.988,252.56,235.988,250.251z"/>
			<path fill="#FFFFFF" d="M180.531,242.723v0.242c1.506,1.312,2.473,3.329,2.473,5.593c0,2.265-0.967,4.282-2.473,5.592v0.282
				h13.252v-11.709H180.531z"/>
		</g>
	</g>
	<path fill="#FFFFFF" d="M258.973,102.816H141.857c-7.912,0-14.325,6.545-14.325,14.616v165.405c0,8.071,6.413,14.617,14.325,14.617
		h117.116c7.912,0,14.326-6.546,14.326-14.617V117.433C273.299,109.361,266.885,102.816,258.973,102.816z M259.609,270.048
		c0,8.071-6.545,14.615-14.617,14.615h-89.156c-8.072,0-14.617-6.544-14.617-14.615V130.223c0-8.07,6.545-14.615,14.617-14.615
		h89.156c8.072,0,14.617,6.545,14.617,14.615V270.048z"/>
</g>
</svg>
