<svg xmlns="http://www.w3.org/2000/svg" viewBox="0 97 612 450" enable-background="new 0 97 612 450"><path fill="#FDD900" d="M144.1 280.4h-143.9v253.7h174.5v-222.2l-30.6-31.5zm-137.6 7h134.7v28.8h27.2v211.8h-161.9v-240.6z"/><path fill="#03F1F7" d="M361.9 280.4h-144v253.7h174.5v-222.2l-30.5-31.5zm-137.7 7h134.7v28.8h27.1v211.8h-161.8v-240.6z"/><path fill="#EC008C" d="M576 280.4h-144v253.7h174.6v-222.2l-30.6-31.5zm-137.7 7h134.7v28.8h27.2v211.8h-161.9v-240.6zm-413.2 132.5c0-34.8 28.2-63.1 63.1-63.1s63.1 28.2 63.1 63.1-28.2 63.1-63.1 63.1c-34.9-.2-63.1-28.3-63.1-63.1zm10.9 0c0 28.7 23.3 52 52.1 52.1 28.7 0 52-23.3 52.1-52.1 0-28.7-23.3-52-52.1-52.1-28.8 0-52.1 23.2-52.1 52.1zm52 32.9c-8.4 0-16.8-3.2-23.3-9.6-6.5-6.5-9.6-14.9-9.6-23.3s3.2-16.8 9.6-23.3c6.5-6.5 14.9-9.6 23.3-9.6s16.8 3.2 23.3 9.6l-7.7 7.7c-4.4-4.4-9.9-6.5-15.5-6.5-5.7 0-11.3 2.1-15.5 6.5-4.4 4.4-6.5 9.9-6.5 15.6 0 5.6 2.1 11.3 6.5 15.5 4.4 4.4 9.9 6.5 15.5 6.5 5.7 0 11.3-2.1 15.5-6.5l7.7 7.7c-6.5 6.4-14.9 9.7-23.3 9.7zm155.7-32.9c0-34.8 28.2-63.1 63.1-63.1s63.1 28.2 63.1 63.1-28.2 63.1-63.1 63.1c-34.9-.2-63.1-28.3-63.1-63.1zm10.9 0c0 28.7 23.3 52 52.1 52.1 28.7 0 52-23.3 52.1-52.1 0-28.7-23.3-52-52.1-52.1-28.8 0-52.1 23.2-52.1 52.1zm52 32.9c-8.4 0-16.8-3.2-23.3-9.6-6.5-6.5-9.6-14.9-9.6-23.3s3.2-16.8 9.6-23.3c6.5-6.5 14.9-9.6 23.3-9.6s16.8 3.2 23.3 9.6l-7.7 7.7c-4.4-4.4-9.9-6.5-15.5-6.5-5.7 0-11.3 2.1-15.5 6.5-4.4 4.4-6.5 9.9-6.5 15.6 0 5.6 2.1 11.3 6.5 15.5 4.4 4.4 9.9 6.5 15.5 6.5 5.7 0 11.3-2.1 15.5-6.5l7.7 7.7c-6.5 6.4-14.9 9.7-23.3 9.7zm149.7-32.9c0-34.8 28.2-63.1 63.1-63.1s63.1 28.2 63.1 63.1-28.2 63.1-63.1 63.1c-34.9-.2-63.1-28.3-63.1-63.1zm11 0c0 28.7 23.3 52 52.1 52.1 28.7 0 52-23.3 52.1-52.1 0-28.7-23.3-52-52.1-52.1-28.9 0-52.1 23.2-52.1 52.1zm51.9 32.9c-8.4 0-16.8-3.2-23.3-9.6-6.5-6.5-9.6-14.9-9.6-23.3s3.2-16.8 9.6-23.3c6.5-6.5 14.9-9.6 23.3-9.6s16.8 3.2 23.3 9.6l-7.7 7.7c-4.4-4.4-9.9-6.5-15.5-6.5-5.7 0-11.3 2.1-15.5 6.5-4.4 4.4-6.5 9.9-6.5 15.6 0 5.6 2.1 11.3 6.5 15.5 4.4 4.4 9.9 6.5 15.5 6.5 5.7 0 11.3-2.1 15.5-6.5l7.7 7.7c-6.5 6.4-14.9 9.7-23.3 9.7z"/><path d="M12.5 226.2h2.3m4.4 0h576m2.2 0h2.3" stroke="#EC008C" stroke-linecap="round" stroke-miterlimit="10" fill="none"/><g fill="#EC008C"><path d="M122.7 262.4h-18.8v.9c0 5.1-4.2 9.3-9.3 9.3h-22.2c-5.1 0-9.3-4.2-9.3-9.3v-.9h-18.8c-6.5 0-11.9 5.3-11.9 11.9 0 6.5 5.3 11.9 11.9 11.9h78.4c6.5 0 11.9-5.3 11.9-11.9-.1-6.5-5.5-11.9-11.9-11.9zm-34.6 3.7h-9.3c-5.1 0-9.3-4.2-9.3-9.3v-9.3c0-5.1 4.2-9.3 9.3-9.3h9.3c5.1 0 9.3 4.2 9.3 9.3v9.3c0 5.1-4.2 9.3-9.3 9.3z"/><circle cx="83.2" cy="226.2" r="7.7"/></g><g fill="#FDD900"><path d="M338.3 262.4h-18.8v.9c0 5.1-4.2 9.3-9.3 9.3h-22.2c-5.1 0-9.3-4.2-9.3-9.3v-.9h-18.8c-6.5 0-11.9 5.3-11.9 11.9 0 6.5 5.3 11.9 11.9 11.9h78.4c6.5 0 11.9-5.3 11.9-11.9-.1-6.5-5.5-11.9-11.9-11.9zm-34.6 3.7h-9.3c-5.1 0-9.3-4.2-9.3-9.3v-9.3c0-5.1 4.2-9.3 9.3-9.3h9.3c5.1 0 9.3 4.2 9.3 9.3v9.3c.1 5.1-4.1 9.3-9.3 9.3z"/><circle cx="298.8" cy="226.2" r="7.7"/></g><g fill="#03F1F7"><path d="M558.4 262.4h-18.8v.9c0 5.1-4.2 9.3-9.3 9.3h-22.2c-5.1 0-9.3-4.2-9.3-9.3v-.9h-18.8c-6.5 0-11.9 5.3-11.9 11.9 0 6.5 5.3 11.9 11.9 11.9h78.4c6.5 0 11.9-5.3 11.9-11.9 0-6.5-5.4-11.9-11.9-11.9zm-34.5 3.7h-9.3c-5.1 0-9.3-4.2-9.3-9.3v-9.3c0-5.1 4.2-9.3 9.3-9.3h9.3c5.1 0 9.3 4.2 9.3 9.3v9.3c0 5.1-4.2 9.3-9.3 9.3z"/><circle cx="518.9" cy="226.2" r="7.7"/></g></svg>