<svg xmlns="http://www.w3.org/2000/svg" viewBox="0 0 400 400" enable-background="new 0 0 400 400"><linearGradient id="a" gradientUnits="userSpaceOnUse" x1="200.251" y1="363.913" x2="200.251" y2="135.713"><stop offset="0" stop-color="#F6EB16"/><stop offset="1" stop-color="#FCD900"/></linearGradient><path fill="url(#a)" d="M81.6 60.5h237.3c11 0 20 9 20 20v237.3c0 11-9 20-20 20h-237.3c-11 0-20-9-20-20v-237.3c0-11 8.9-20 20-20z"/><g fill="#fff"><path d="M248.8 136.7h-21.7c-1.1 3.8-4.7 6.6-8.9 6.6h-36.1c-4.2 0-7.7-2.8-8.9-6.6h-21.7c-5.1 0-9.3 4.1-9.3 9.3v135.9c0 5.1 4.1 9.3 9.3 9.3h97.2c5.1 0 9.3-4.1 9.3-9.3v-135.9c.1-5.1-4.1-9.3-9.2-9.3zm-1.6 134.7c0 5.4-4.4 9.8-9.8 9.8h-74.3c-5.4 0-9.8-4.4-9.8-9.8v-114.9c0-5.4 4.4-9.8 9.8-9.8h67.2v15.7h16.9v109zm-62.4-131.3h30.9c4.3 0 7.8-3.5 7.8-7.8s-3.5-7.8-7.8-7.8h-6.7v2c0 2.6-2.1 4.6-4.6 4.6h-8.3c-2.6 0-4.6-2.1-4.6-4.6v-2h-6.6c-4.3 0-7.8 3.5-7.8 7.8-.1 4.3 3.4 7.8 7.7 7.8zm13.1-11.3h4.8c2.3 0 4.2-1.9 4.2-4.2v-4.8c0-2.3-1.9-4.2-4.2-4.2h-4.8c-2.3 0-4.2 1.9-4.2 4.2v4.8c-.1 2.3 1.8 4.2 4.2 4.2z"/><circle cx="199.7" cy="109.1" r="3.8"/><path d="M200.3 181.1c-20.8 0-37.8 16.9-37.8 37.8 0 20.8 16.9 37.8 37.8 37.8s37.8-16.9 37.8-37.8c-.1-20.8-17-37.8-37.8-37.8zm0 69.7c-17.6 0-31.9-14.3-31.9-31.9 0-17.6 14.3-31.9 31.9-31.9s31.9 14.3 31.9 31.9c0 17.6-14.3 31.9-31.9 31.9zm1.4-42.9c3.6 0 6.9 1.5 9.8 4.6l4.3-4.1c-1.8-2.1-3.9-3.7-6.4-4.8-2.5-1.1-5-1.7-7.7-1.7-3.1 0-6 .8-8.7 2.3-2.7 1.5-4.8 3.5-6.2 6s-2.2 5.3-2.2 8.6c0 5 1.6 9 4.8 12.2 3.2 3.2 7.3 4.8 12.3 4.8 2.7 0 5.1-.4 7.2-1.3 2.1-.9 4.4-2.5 6.7-4.8l-4.2-4.3c-1.8 1.8-3.4 3-4.9 3.6-1.5.7-3.1 1-4.9 1-2.1 0-4-.5-5.7-1.4s-3-2.3-4-3.9c-.9-1.7-1.4-3.6-1.4-5.7 0-3.1 1.1-5.7 3.2-7.8 2.4-2.2 4.9-3.3 8-3.3z"/></g><g stroke="#fff" stroke-width="3" stroke-linecap="round" stroke-miterlimit="10" fill="none"><path d="M61.8 109.9h4M74 109.9h256.6M334.7 109.9h4"/></g></svg>