<?xml version="1.0" encoding="utf-8"?>
<!-- Generator: Adobe Illustrator 15.1.0, SVG Export Plug-In . SVG Version: 6.00 Build 0)  -->
<!DOCTYPE svg PUBLIC "-//W3C//DTD SVG 1.1//EN" "http://www.w3.org/Graphics/SVG/1.1/DTD/svg11.dtd">
<svg version="1.1" id="Layer_1" xmlns="http://www.w3.org/2000/svg" xmlns:xlink="http://www.w3.org/1999/xlink" x="0px" y="0px"
	 width="400px" height="400px" viewBox="0 0 400 400" enable-background="new 0 0 400 400" xml:space="preserve">
<linearGradient id="SVGID_1_" gradientUnits="userSpaceOnUse" x1="200.2524" y1="339.1172" x2="200.2524" y2="59.8507">
	<stop  offset="0" style="stop-color:#28A8E0"/>
	<stop  offset="1" style="stop-color:#1D76BB"/>
</linearGradient>
<path fill="url(#SVGID_1_)" d="M289.354,337.855H111.15c-27.374,0-49.565-22.19-49.565-49.564V110.087
	c0-27.374,22.191-49.565,49.565-49.565h178.203c27.375,0,49.565,22.191,49.565,49.565v178.204
	C338.919,315.665,316.729,337.855,289.354,337.855z"/>
<g>
	<path fill="#FFFFFF" d="M248.832,136.74h-21.678c-1.148,3.805-4.678,6.578-8.857,6.578h-36.088c-4.18,0-7.709-2.773-8.857-6.578
		h-21.679c-5.11,0-9.253,4.143-9.253,9.253v135.938c0,5.11,4.143,9.254,9.253,9.254h97.16c5.111,0,9.254-4.144,9.254-9.254V145.993
		C258.086,140.883,253.943,136.74,248.832,136.74z M247.189,271.407c0,5.406-4.383,9.79-9.791,9.79h-74.292
		c-5.407,0-9.791-4.384-9.791-9.79v-114.89c0-5.407,4.384-9.79,9.791-9.79h67.22v15.715h16.863V271.407z"/>
	<path fill="#FFFFFF" d="M184.825,140.079h30.854c4.328,0,7.838-3.51,7.838-7.838c0-4.329-3.51-7.838-7.838-7.838h-6.637v1.951
		c0,2.556-2.071,4.627-4.627,4.627h-8.328c-2.555,0-4.626-2.071-4.626-4.627v-1.951h-6.637c-4.328,0-7.837,3.509-7.837,7.838
		C176.988,136.569,180.497,140.079,184.825,140.079z"/>
	<path fill="#FFFFFF" d="M197.854,128.823h4.797c2.338,0,4.233-1.896,4.233-4.233v-4.797c0-2.339-1.896-4.233-4.233-4.233h-4.797
		c-2.337,0-4.233,1.895-4.233,4.233v4.797C193.621,126.928,195.517,128.823,197.854,128.823z"/>
	<circle fill="#FFFFFF" cx="199.674" cy="109.12" r="3.817"/>
	<path fill="#FFFFFF" d="M200.252,181.104c-20.834,0-37.784,16.95-37.784,37.784c0,20.835,16.95,37.784,37.784,37.784
		s37.785-16.949,37.785-37.784C238.037,198.054,221.087,181.104,200.252,181.104z M200.252,250.812
		c-17.603,0-31.924-14.32-31.924-31.924c0-17.603,14.321-31.924,31.924-31.924s31.924,14.321,31.924,31.924
		C232.177,236.491,217.855,250.812,200.252,250.812z"/>
	<path fill="#FFFFFF" d="M201.72,207.915c3.644,0,6.923,1.541,9.837,4.621l4.285-4.084c-1.78-2.068-3.898-3.663-6.356-4.784
		c-2.458-1.122-5.014-1.682-7.669-1.682c-3.121,0-6.035,0.758-8.74,2.275c-2.706,1.517-4.784,3.522-6.236,6.017
		s-2.177,5.346-2.177,8.555c0,4.96,1.594,9.025,4.781,12.198c3.187,3.172,7.282,4.759,12.286,4.759c2.713,0,5.127-0.449,7.241-1.347
		c2.115-0.897,4.362-2.506,6.74-4.826l-4.154-4.334c-1.764,1.752-3.381,2.96-4.854,3.624c-1.472,0.664-3.096,0.997-4.874,0.997
		c-2.084,0-3.979-0.475-5.684-1.424s-3.024-2.256-3.957-3.92c-0.933-1.665-1.399-3.57-1.399-5.717c0-3.081,1.053-5.672,3.159-7.775
		C196.054,208.967,198.645,207.915,201.72,207.915z"/>
</g>
<g>
	<g>
		
			<line fill="none" stroke="#FFFFFF" stroke-width="3" stroke-linecap="round" stroke-miterlimit="10" x1="61.848" y1="109.873" x2="65.848" y2="109.873"/>
		
			<line fill="none" stroke="#FFFFFF" stroke-width="3" stroke-linecap="round" stroke-miterlimit="10" stroke-dasharray="8.1457,8.1457" x1="73.993" y1="109.873" x2="330.584" y2="109.873"/>
		
			<line fill="none" stroke="#FFFFFF" stroke-width="3" stroke-linecap="round" stroke-miterlimit="10" x1="334.656" y1="109.873" x2="338.656" y2="109.873"/>
	</g>
</g>
</svg>
