<svg xmlns="http://www.w3.org/2000/svg" width="400" height="400" viewBox="0 0 400 400"><linearGradient id="a" gradientUnits="userSpaceOnUse" x1="200.368" y1="339.793" x2="200.368" y2="60.526"><stop offset="0" stop-color="#FECF09"/><stop offset="1" stop-color="#FAA51A"/></linearGradient><path fill="url(#a)" d="M289.47 338.531h-178.204c-27.374 0-49.564-22.189-49.564-49.564v-178.203c0-27.375 22.19-49.566 49.564-49.566h178.204c27.374 0 49.564 22.191 49.564 49.566v178.203c0 27.375-22.19 49.564-49.564 49.564z"/><path fill="#fff" d="M268.997 258.005l-8.093-4.957-42.375-6.474c-8.617-1.816-8.279-9.313-8.279-12.111h-.063v-98.063h-11.429v71.984l-3.854-56.481c-.071-4.475-3.567-8.087-7.853-8.087h-61.327c-4.287 0-7.785 3.616-7.857 8.087l-3.577 52.462h-10.506c-1.616 0-2.927 2.057-2.927 4.591 0 0-.065 57.598-.065 58.783 0 13.184 10.718 23.902 23.898 23.902 12.67 0 23.061-9.914 23.843-22.393h24.806c.781 12.477 11.178 22.389 23.847 22.389 13.178 0 23.901-10.717 23.901-23.9 0-3.462-.753-6.761-2.086-9.736h49.991v.005h.005zm-135.926 11.243c-.715 3.979-4.196 7.014-8.378 7.014-4.286 0-7.83-3.186-8.423-7.299-.06-.402-.101-.81-.101-1.225l.026-.515c.121-2.024.952-3.855 2.245-5.257 1.557-1.686 3.778-2.749 6.252-2.749 2.471 0 4.691 1.063 6.25 2.749 1.295 1.399 2.125 3.232 2.245 5.257l.026.515c0 .52-.051 1.017-.142 1.51zm25.35-52.045l-27.71-12.837h-9.117l3.549-52.075.01-.245c0-.569.346-.948.574-.948h61.323c.227 0 .571.379.571.948v.123l4.178 61.297-10.044-8.411 4.875-5.82c1.11-1.319.934-3.289-.385-4.393-1.321-1.111-3.292-.936-4.397.386l-12.55 14.987c-1.107 1.319-.932 3.289.386 4.395 1.323 1.104 3.292.936 4.394-.388l4.876-5.821 10.529 8.819-31.062-.017zm38.767 59.061c-4.185 0-7.666-3.037-8.381-7.016-.088-.491-.14-.99-.14-1.512l.023-.513c.126-2.024.952-3.855 2.249-5.26 1.068-1.153 2.446-2.009 4.005-2.435.719-.201 1.465-.312 2.244-.312.633 0 1.246.072 1.837.205 1.224.267 2.351.808 3.317 1.546.716.549 1.354 1.203 1.867 1.944.844 1.232 1.371 2.687 1.475 4.254.016.19.03.381.03.569-.007 4.707-3.826 8.53-8.526 8.53z"/><path fill="#fff" d="M292.905 183.63h-63.928c-2.263 0-4.099 1.835-4.099 4.099v44.803c0 2.264 1.836 4.099 4.099 4.099h63.928c2.264 0 4.099-1.835 4.099-4.099v-44.803c0-2.264-1.835-4.099-4.099-4.099zm-21.514 16.802h-20.898c-2.037 0-3.688-1.652-3.688-3.688 0-2.037 1.651-3.688 3.688-3.688h20.898c2.037 0 3.688 1.65 3.688 3.688 0 2.035-1.651 3.688-3.688 3.688zM292.905 121.13h-63.928c-2.263 0-4.099 1.835-4.099 4.099v44.803c0 2.264 1.836 4.099 4.099 4.099h63.928c2.264 0 4.099-1.835 4.099-4.099v-44.803c0-2.264-1.835-4.099-4.099-4.099zm-21.514 16.802h-20.898c-2.037 0-3.688-1.652-3.688-3.688 0-2.037 1.651-3.688 3.688-3.688h20.898c2.037 0 3.688 1.65 3.688 3.688 0 2.035-1.651 3.688-3.688 3.688z"/></svg>