<?xml version="1.0" encoding="utf-8"?>
<!-- Generator: Adobe Illustrator 15.1.0, SVG Export Plug-In . SVG Version: 6.00 Build 0)  -->
<!DOCTYPE svg PUBLIC "-//W3C//DTD SVG 1.1//EN" "http://www.w3.org/Graphics/SVG/1.1/DTD/svg11.dtd">
<svg version="1.1" id="Layer_1" xmlns="http://www.w3.org/2000/svg" xmlns:xlink="http://www.w3.org/1999/xlink" x="0px" y="0px"
	 width="400px" height="400px" viewBox="0 0 400 400" enable-background="new 0 0 400 400" xml:space="preserve">
<linearGradient id="SVGID_1_" gradientUnits="userSpaceOnUse" x1="200.1011" y1="331.6777" x2="200.1011" y2="78.6604">
	<stop  offset="0" style="stop-color:#41A2DA"/>
	<stop  offset="0.2659" style="stop-color:#37A9CA"/>
	<stop  offset="0.5786" style="stop-color:#25AFBA"/>
	<stop  offset="0.8346" style="stop-color:#11B3AF"/>
	<stop  offset="1" style="stop-color:#03B4AC"/>
</linearGradient>
<rect x="61.434" y="61.197" fill="url(#SVGID_1_)" width="277.333" height="277.334"/>
<g id="Your_Icon_1_">
	<path fill="#FFFFFF" d="M270.997,258.005l-8.093-4.957l-42.375-6.474c-8.617-1.816-8.279-9.313-8.279-12.111h-0.063v-98.063
		h-11.429v71.984l-3.854-56.481c-0.071-4.475-3.567-8.087-7.853-8.087h-61.327c-4.287,0-7.785,3.616-7.857,8.087l-3.577,52.462
		h-10.506c-1.616,0-2.927,2.057-2.927,4.591c0,0-0.065,57.598-0.065,58.783c0,13.184,10.718,23.902,23.898,23.902
		c12.67,0,23.061-9.914,23.843-22.393h24.806c0.781,12.477,11.178,22.389,23.847,22.389c13.178,0,23.901-10.717,23.901-23.9
		c0-3.462-0.753-6.761-2.086-9.736h49.991v0.005H270.997z M135.071,269.248c-0.715,3.979-4.196,7.014-8.378,7.014
		c-4.286,0-7.83-3.186-8.423-7.299c-0.06-0.402-0.101-0.81-0.101-1.225c0-0.171,0.014-0.339,0.026-0.515
		c0.121-2.024,0.952-3.855,2.245-5.257c1.557-1.686,3.778-2.749,6.252-2.749c2.471,0,4.691,1.063,6.25,2.749
		c1.295,1.399,2.125,3.232,2.245,5.257c0.009,0.176,0.026,0.344,0.026,0.515C135.213,268.258,135.162,268.755,135.071,269.248z
		 M160.421,217.203l-27.71-12.837h-9.117l3.549-52.075l0.01-0.245c0-0.569,0.346-0.948,0.574-0.948h61.323
		c0.227,0,0.571,0.379,0.571,0.948v0.123l4.178,61.297l-10.044-8.411l4.875-5.82c1.11-1.319,0.934-3.289-0.385-4.393
		c-1.321-1.111-3.292-0.936-4.397,0.386l-12.55,14.987c-1.107,1.319-0.932,3.289,0.386,4.395c1.323,1.104,3.292,0.936,4.394-0.388
		l4.876-5.821l10.529,8.819L160.421,217.203z M199.188,276.264c-4.185,0-7.666-3.037-8.381-7.016c-0.088-0.491-0.14-0.99-0.14-1.512
		c0-0.169,0.015-0.341,0.023-0.513c0.126-2.024,0.952-3.855,2.249-5.26c1.068-1.153,2.446-2.009,4.005-2.435
		c0.719-0.201,1.465-0.312,2.244-0.312c0.633,0,1.246,0.072,1.837,0.205c1.223,0.267,2.351,0.808,3.316,1.546
		c0.716,0.549,1.354,1.203,1.867,1.944c0.844,1.232,1.371,2.687,1.475,4.254c0.016,0.19,0.03,0.381,0.03,0.569
		C207.707,272.441,203.888,276.264,199.188,276.264z"/>
</g>
<path fill="#FFFFFF" d="M294.905,183.63h-63.928c-2.263,0-4.099,1.835-4.099,4.099v44.803c0,2.264,1.836,4.099,4.099,4.099h63.928
	c2.264,0,4.099-1.835,4.099-4.099v-44.803C299.004,185.465,297.169,183.63,294.905,183.63z M273.391,200.432h-20.898
	c-2.037,0-3.688-1.652-3.688-3.688c0-2.037,1.651-3.688,3.688-3.688h20.898c2.037,0,3.688,1.65,3.688,3.688
	C277.079,198.779,275.428,200.432,273.391,200.432z"/>
<path fill="#FFFFFF" d="M294.905,121.13h-63.928c-2.263,0-4.099,1.835-4.099,4.099v44.803c0,2.264,1.836,4.099,4.099,4.099h63.928
	c2.264,0,4.099-1.835,4.099-4.099v-44.803C299.004,122.965,297.169,121.13,294.905,121.13z M273.391,137.932h-20.898
	c-2.037,0-3.688-1.652-3.688-3.688c0-2.037,1.651-3.688,3.688-3.688h20.898c2.037,0,3.688,1.65,3.688,3.688
	C277.079,136.279,275.428,137.932,273.391,137.932z"/>
</svg>
