<svg xmlns="http://www.w3.org/2000/svg" viewBox="0 0 400 400" enable-background="new 0 0 400 400"><path fill="#00E1FF" d="M81.4 61.2h237.3c11 0 20 9 20 20v237.3c0 11-9 20-20 20h-237.3c-11 0-20-9-20-20v-237.3c0-11 9-20 20-20z"/><path fill="#fff" d="M271 258l-8.1-5-42.4-6.5c-8.6-1.8-8.3-9.3-8.3-12.1h-.1v-98.1h-11.4v72l-3.9-56.5c-.1-4.5-3.6-8.1-7.9-8.1h-61.3c-4.3 0-7.8 3.6-7.9 8.1l-3.6 52.5h-10.5c-1.6 0-2.9 2.1-2.9 4.6 0 0-.1 57.6-.1 58.8 0 13.2 10.7 23.9 23.9 23.9 12.7 0 23.1-9.9 23.8-22.4h24.8c.8 12.5 11.2 22.4 23.8 22.4 13.2 0 23.9-10.7 23.9-23.9 0-3.5-.8-6.8-2.1-9.7h50.3zm-135.9 11.2c-.7 4-4.2 7-8.4 7-4.3 0-7.8-3.2-8.4-7.3-.1-.4-.1-.8-.1-1.2v-.5c.1-2 1-3.9 2.2-5.3 1.6-1.7 3.8-2.7 6.3-2.7s4.7 1.1 6.3 2.7c1.3 1.4 2.1 3.2 2.2 5.3v.5c0 .6 0 1.1-.1 1.5zm25.3-52l-27.7-12.8h-9.1l3.5-52.1v-.2c0-.6.3-.9.6-.9h61.3c.2 0 .6.4.6.9v.1l4.2 61.3-10-8.4 4.9-5.8c1.1-1.3.9-3.3-.4-4.4-1.3-1.1-3.3-.9-4.4.4l-12.6 15c-1.1 1.3-.9 3.3.4 4.4 1.3 1.1 3.3.9 4.4-.4l4.9-5.8 10.5 8.8-31.1-.1zm38.8 59.1c-4.2 0-7.7-3-8.4-7-.1-.5-.1-1-.1-1.5v-.5c.1-2 1-3.9 2.2-5.3 1.1-1.2 2.4-2 4-2.4.7-.2 1.5-.3 2.2-.3.6 0 1.2.1 1.8.2 1.2.3 2.4.8 3.3 1.5.7.5 1.4 1.2 1.9 1.9.8 1.2 1.4 2.7 1.5 4.3v.6c.1 4.6-3.7 8.5-8.4 8.5z"/><path fill="#fff" d="M294.9 183.6h-63.9c-2.3 0-4.1 1.8-4.1 4.1v44.8c0 2.3 1.8 4.1 4.1 4.1h63.9c2.3 0 4.1-1.8 4.1-4.1v-44.8c0-2.2-1.8-4.1-4.1-4.1zm-21.5 16.8h-20.9c-2 0-3.7-1.7-3.7-3.7s1.7-3.7 3.7-3.7h20.9c2 0 3.7 1.6 3.7 3.7s-1.7 3.7-3.7 3.7zM294.9 121.1h-63.9c-2.3 0-4.1 1.8-4.1 4.1v44.8c0 2.3 1.8 4.1 4.1 4.1h63.9c2.3 0 4.1-1.8 4.1-4.1v-44.8c0-2.2-1.8-4.1-4.1-4.1zm-21.5 16.8h-20.9c-2 0-3.7-1.7-3.7-3.7s1.7-3.7 3.7-3.7h20.9c2 0 3.7 1.6 3.7 3.7s-1.7 3.7-3.7 3.7z"/></svg>