<?xml version="1.0" encoding="utf-8"?>
<!-- Generator: Adobe Illustrator 15.1.0, SVG Export Plug-In . SVG Version: 6.00 Build 0)  -->
<!DOCTYPE svg PUBLIC "-//W3C//DTD SVG 1.1//EN" "http://www.w3.org/Graphics/SVG/1.1/DTD/svg11.dtd">
<svg version="1.1" id="Layer_1" xmlns="http://www.w3.org/2000/svg" xmlns:xlink="http://www.w3.org/1999/xlink" x="0px" y="0px"
	 width="400px" height="400px" viewBox="0 0 400 400" enable-background="new 0 0 400 400" xml:space="preserve">
<linearGradient id="SVGID_1_" gradientUnits="userSpaceOnUse" x1="200.5815" y1="363.8525" x2="200.5815" y2="135.6529">
	<stop  offset="0" style="stop-color:#2C2321"/>
	<stop  offset="1" style="stop-color:#231F20"/>
</linearGradient>
<rect x="61.914" y="60.461" fill="url(#SVGID_1_)" width="277.334" height="277.334"/>
<line fill="none" stroke="#FFFFFF" stroke-width="0.5" stroke-linecap="round" stroke-miterlimit="10" x1="89.788" y1="60.461" x2="89.788" y2="339.129"/>
<line fill="none" stroke="#FFFFFF" stroke-width="0.5" stroke-linecap="round" stroke-miterlimit="10" x1="117.663" y1="60.461" x2="117.663" y2="339.129"/>
<line fill="none" stroke="#FFFFFF" stroke-width="0.5" stroke-linecap="round" stroke-miterlimit="10" x1="145.537" y1="60.461" x2="145.537" y2="339.129"/>
<line fill="none" stroke="#FFFFFF" stroke-width="0.5" stroke-linecap="round" stroke-miterlimit="10" x1="173.411" y1="60.461" x2="173.411" y2="339.129"/>
<line fill="none" stroke="#FFFFFF" stroke-width="0.5" stroke-linecap="round" stroke-miterlimit="10" x1="201.285" y1="60.461" x2="201.285" y2="339.129"/>
<line fill="none" stroke="#FFFFFF" stroke-width="0.5" stroke-linecap="round" stroke-miterlimit="10" x1="229.16" y1="60.461" x2="229.16" y2="339.129"/>
<line fill="none" stroke="#FFFFFF" stroke-width="0.5" stroke-linecap="round" stroke-miterlimit="10" x1="257.034" y1="60.461" x2="257.034" y2="339.129"/>
<line fill="none" stroke="#FFFFFF" stroke-width="0.5" stroke-linecap="round" stroke-miterlimit="10" x1="284.908" y1="60.461" x2="284.908" y2="339.129"/>
<line fill="none" stroke="#FFFFFF" stroke-width="0.5" stroke-linecap="round" stroke-miterlimit="10" x1="312.782" y1="60.461" x2="312.782" y2="339.129"/>
<g>
	
		<line fill="none" stroke="#FFFFFF" stroke-width="4" stroke-linecap="round" stroke-miterlimit="10" x1="61.914" y1="251.333" x2="65.627" y2="254.682"/>
	<path fill="none" stroke="#FFFFFF" stroke-width="4" stroke-linecap="round" stroke-miterlimit="10" d="M72.942,261.276
		l3.964,3.575c4.084,3.683,10.06,3.047,13.278-1.413l12.297-17.042c3.218-4.46,8.75-4.667,12.292-0.459l1.12,1.33
		c3.542,4.208,8.885,3.872,11.873-0.745l28.468-43.991c2.988-4.617,8.623-5.222,12.522-1.344l24.734,24.603
		c3.899,3.878,9.065,3.009,11.479-1.934l33.641-68.871c2.414-4.942,7.422-5.661,11.129-1.598l21.188,23.225
		c3.707,4.063,9.325,3.705,12.486-0.796l48.73-69.396"/>
	
		<line fill="none" stroke="#FFFFFF" stroke-width="4" stroke-linecap="round" stroke-miterlimit="10" x1="334.975" y1="102.39" x2="337.848" y2="98.298"/>
</g>
</svg>
