<svg xmlns="http://www.w3.org/2000/svg" width="400" height="400" viewBox="0 0 400 400"><linearGradient id="a" gradientUnits="userSpaceOnUse" x1="200.582" y1="363.853" x2="200.582" y2="135.653"><stop offset="0" stop-color="#595A5C"/><stop offset="1" stop-color="#231F20"/></linearGradient><path fill="url(#a)" d="M289.683 337.795h-178.204c-27.374 0-49.565-22.19-49.565-49.564v-178.205c0-27.374 22.191-49.565 49.565-49.565h178.204c27.374 0 49.565 22.191 49.565 49.565v178.204c0 27.374-22.191 49.565-49.565 49.565z"/><path stroke="#fff" stroke-width=".5" stroke-linecap="round" stroke-miterlimit="10" fill="none" d="M89.788 60.461v278.668M117.663 60.461v278.668M145.537 60.461v278.668M173.411 60.461v278.668M201.285 60.461v278.668M229.16 60.461v278.668M257.034 60.461v278.668M284.908 60.461v278.668M312.782 60.461v278.668"/><g stroke="#fff" stroke-width="4" stroke-linecap="round" stroke-miterlimit="10" fill="none"><path d="M61.914 251.333l3.713 3.349M72.942 261.276l3.964 3.575c4.084 3.683 10.06 3.047 13.278-1.413l12.297-17.042c3.218-4.46 8.75-4.667 12.292-.459l1.12 1.33c3.542 4.208 8.885 3.872 11.873-.745l28.468-43.991c2.988-4.617 8.623-5.222 12.522-1.344l24.734 24.603c3.899 3.878 9.065 3.009 11.479-1.934l33.641-68.871c2.414-4.942 7.422-5.661 11.129-1.598l21.188 23.225c3.707 4.063 9.325 3.705 12.486-.796l48.73-69.396M334.975 102.39l2.873-4.092"/></g></svg>