<svg xmlns="http://www.w3.org/2000/svg" viewBox="0 0 400 400" enable-background="new 0 0 400 400"><path fill="#00E1FF" d="M81.4 66.2h237.3c11 0 20 9 20 20v237.3c0 11-9 20-20 20h-237.3c-11 0-20-9-20-20v-237.3c0-11 9-20 20-20z"/><path d="M258.3 291.5h-115c-5.5 0-10 4.5-10 10v6.8h135v-6.8c0-5.5-4.5-10-10-10zm9.9-100.4h-46.9c.3-1.4.5-3 .5-4.5 0-4.4-1.3-8.5-3.6-11.9l39.2-39.2c1.7-1.7 1.7-4.5 0-6.2-1.7-1.7-4.5-1.7-6.2 0l-38.8 38.8v-56.1h5.9c2.6 0 4.8-2.1 4.8-4.8s-2.1-4.8-4.8-4.8h-35.1c-2.6 0-4.8 2.1-4.8 4.8s2.1 4.8 4.8 4.8h5.9v56c-.3.2-.6.4-.8.5l-39.3-39.1c-1.7-1.7-4.5-1.7-6.2 0-1.7 1.7-1.7 4.5 0 6.2l39.2 39.2c-2.3 3.4-3.6 7.5-3.6 11.9 0 1.5.2 3 .5 4.5h-46.9c-5.5 0-10 4.5-10 10v1c0 5.5 4.5 10 10 10h36.4l-7.2 7.2h-10.8s0 5 3.3 7.1c.1.1.2.1.2.2l-11.2 11.2c-1.7 1.7-1.7 4.5 0 6.2 1.7 1.7 4.5 1.7 6.2 0l12-12c4.8 4.8 7.7 10.8 7.7 19.7 0 12.8-3.7 17.9-16.5 25.8-3.2 2-1.7 5.9-1.7 5.9h46v-64.1h-22.9l7.2-7.2h38.6l7.2 7.2h-22.9v64.1h46s1.5-4-1.7-5.9c-12.8-8-16.5-13.1-16.5-25.8 0-8.9 2.9-14.9 7.7-19.7l12 12c1.7 1.7 4.5 1.7 6.2 0 1.7-1.7 1.7-4.5 0-6.2l-11.2-11.2c.1-.1.2-.1.2-.2 3.3-2.1 3.3-7.1 3.3-7.1h-10.8l-7.2-7.2h36.4c5.5 0 10-4.5 10-10v-1c.2-5.6-4.3-10.1-9.8-10.1zm-68.1 6.3c-5.8 0-10.4-4.7-10.4-10.4s4.7-10.4 10.4-10.4c5.8 0 10.4 4.7 10.4 10.4s-4.6 10.4-10.4 10.4z" fill="#fff"/></svg>