<?xml version="1.0" encoding="utf-8"?>
<!-- Generator: Adobe Illustrator 15.1.0, SVG Export Plug-In . SVG Version: 6.00 Build 0)  -->
<!DOCTYPE svg PUBLIC "-//W3C//DTD SVG 1.1//EN" "http://www.w3.org/Graphics/SVG/1.1/DTD/svg11.dtd">
<svg version="1.1" id="Layer_1" xmlns="http://www.w3.org/2000/svg" xmlns:xlink="http://www.w3.org/1999/xlink" x="0px" y="0px"
	 width="400px" height="400px" viewBox="0 0 400 400" enable-background="new 0 0 400 400" xml:space="preserve">
<linearGradient id="SVGID_1_" gradientUnits="userSpaceOnUse" x1="200.1011" y1="337.2324" x2="200.1011" y2="84.2151">
	<stop  offset="0" style="stop-color:#41A2DA"/>
	<stop  offset="0.2659" style="stop-color:#37A9CA"/>
	<stop  offset="0.5786" style="stop-color:#25AFBA"/>
	<stop  offset="0.8346" style="stop-color:#11B3AF"/>
	<stop  offset="1" style="stop-color:#03B4AC"/>
</linearGradient>
<rect x="61.434" y="66.752" fill="url(#SVGID_1_)" width="277.333" height="277.334"/>
<g>
	<path fill="#FFFFFF" d="M258.27,291.523h-115c-5.523,0-10,4.477-10,10v6.839h135v-6.839C268.27,296,263.792,291.523,258.27,291.523
		z"/>
	<path fill="#FFFFFF" d="M268.205,191.131h-46.908c0.307-1.449,0.471-2.951,0.471-4.491c0-4.399-1.32-8.486-3.574-11.902
		l39.182-39.183c1.711-1.709,1.711-4.48,0-6.19c-1.709-1.709-4.48-1.709-6.189,0l-38.814,38.815v-56.113h5.871
		c2.648,0,4.795-2.146,4.795-4.795s-2.146-4.796-4.795-4.796h-35.076c-2.648,0-4.796,2.147-4.796,4.796s2.147,4.795,4.796,4.795
		h5.871v55.945c-0.286,0.17-0.563,0.354-0.839,0.536l-39.184-39.184c-1.709-1.709-4.481-1.709-6.19,0c-1.71,1.71-1.71,4.481,0,6.19
		l39.179,39.179c-2.254,3.417-3.569,7.507-3.569,11.906c0,1.54,0.163,3.042,0.469,4.491h-46.906c-5.523,0-10,4.478-10,10v0.98
		c0,5.522,4.477,10,10,10h36.442l-7.153,7.153h-10.765c0,0,0,4.98,3.286,7.065c0.085,0.054,0.165,0.11,0.25,0.164l-11.231,11.231
		c-1.71,1.709-1.71,4.48,0,6.189c1.709,1.71,4.481,1.71,6.19,0.001L161,231.932c4.776,4.75,7.688,10.777,7.688,19.669
		c0,12.754-3.741,17.873-16.5,25.836c-3.167,1.977-1.667,5.927-1.667,5.927h46v-64.099h-22.854l7.153-7.153h38.561l7.152,7.153
		h-22.853v64.099h45.999c0,0,1.5-3.95-1.667-5.927c-12.759-7.962-16.5-13.081-16.5-25.836c0-8.892,2.913-14.918,7.688-19.669
		l11.984,11.984c1.709,1.709,4.48,1.709,6.191-0.001c1.709-1.709,1.709-4.48-0.002-6.189l-11.23-11.231
		c0.084-0.054,0.164-0.11,0.25-0.164c3.285-2.085,3.285-7.065,3.285-7.065h-10.766l-7.152-7.153h36.443c5.523,0,10-4.478,10-10
		v-0.98C278.205,195.608,273.729,191.131,268.205,191.131z M200.1,197.398c-5.767,0-10.442-4.675-10.442-10.442
		s4.676-10.442,10.442-10.442c5.767,0,10.443,4.675,10.443,10.442S205.867,197.398,200.1,197.398z"/>
</g>
</svg>
