<svg xmlns="http://www.w3.org/2000/svg" width="400" height="400" viewBox="0 0 400 400"><linearGradient id="a" gradientUnits="userSpaceOnUse" x1="200.101" y1="339.115" x2="200.101" y2="59.849"><stop offset="0" stop-color="#28A8E0"/><stop offset="1" stop-color="#1D76BB"/></linearGradient><path fill="url(#a)" d="M289.203 337.854h-178.204c-27.374 0-49.565-22.19-49.565-49.564v-178.205c0-27.374 22.191-49.565 49.565-49.565h178.204c27.373 0 49.564 22.191 49.564 49.565v178.204c.001 27.374-22.191 49.565-49.564 49.565z"/><g fill="#fff"><path d="M258.27 285.291h-115c-5.523 0-10 4.477-10 10v6.839h135v-6.839c0-5.523-4.478-10-10-10zM268.205 184.898h-46.908c.307-1.449.471-2.951.471-4.491 0-4.399-1.32-8.486-3.574-11.902l39.182-39.183c1.711-1.709 1.711-4.48 0-6.19-1.709-1.709-4.48-1.709-6.189 0l-38.814 38.815v-56.113h5.871c2.648 0 4.795-2.146 4.795-4.795s-2.146-4.796-4.795-4.796h-35.076c-2.648 0-4.796 2.147-4.796 4.796s2.147 4.795 4.796 4.795h5.871v55.945c-.286.17-.563.354-.839.536l-39.184-39.184c-1.709-1.709-4.481-1.709-6.19 0-1.71 1.71-1.71 4.481 0 6.19l39.179 39.179c-2.254 3.417-3.569 7.507-3.569 11.906 0 1.54.163 3.042.469 4.491h-46.906c-5.523 0-10 4.478-10 10v.98c0 5.522 4.477 10 10 10h36.442l-7.153 7.153h-10.765s0 4.98 3.286 7.065l.25.164-11.231 11.231c-1.71 1.709-1.71 4.48 0 6.189 1.709 1.71 4.481 1.71 6.19.001l11.982-11.981c4.776 4.75 7.688 10.777 7.688 19.669 0 12.754-3.741 17.873-16.5 25.836-3.167 1.977-1.667 5.927-1.667 5.927h46v-64.099h-22.854l7.153-7.153h38.561l7.152 7.153h-22.853v64.099h45.999s1.5-3.95-1.667-5.927c-12.759-7.962-16.5-13.081-16.5-25.836 0-8.892 2.913-14.918 7.688-19.669l11.984 11.984c1.709 1.709 4.48 1.709 6.191-.001 1.709-1.709 1.709-4.48-.002-6.189l-11.23-11.231.25-.164c3.285-2.085 3.285-7.065 3.285-7.065h-10.766l-7.152-7.153h36.443c5.523 0 10-4.478 10-10v-.98c.002-5.524-4.474-10.002-9.998-10.002zm-68.105 6.268c-5.767 0-10.442-4.675-10.442-10.442s4.676-10.442 10.442-10.442c5.767 0 10.443 4.675 10.443 10.442s-4.676 10.442-10.443 10.442z"/></g></svg>