<svg xmlns="http://www.w3.org/2000/svg" viewBox="0 169 612 460" enable-background="new 0 169 612 460"><path d="M73.4 410.1h-2.3l2-1.2m3.9-2.1l410.1-227.8m2.1-1l2-1.1-.9 2m-2 4.2l-192.7 431.8m-.9 2.1l-.9 2.1-.3-2.3m-.4-4.6l-22.2-198.3m-.3-2.3l-.3-2.3h-2.3m-4.5.1l-187.8.8" stroke="#FDD900" stroke-width="2" stroke-miterlimit="10" fill="none"/><path fill="#FDD900" d="M155.9 387.3l288.6-160.4-135.6 303.9-16.2-144.1-136.8.6z"/><path fill="#00FFCE" d="M272.2 195.3c-6.8-.6-14.1-.9-21.5-.9-27.2 0-44.3 5-51.1 14.6-6.8-9.8-23.9-14.6-51.1-14.6-7.4 0-14.6.3-21.5.9h-1.1c-.6.2-1.1.2-1.7.2h-.2c-.6.2-1.2.2-1.8.2h-.6c-.3 0-.8.2-1.2.2-.2.2-.6.2-1.1.2-13.8 1.4-23.7 3.2-24 3.2l-.9.2-2.4 3h-18v160.7l2.6-.2c.5 0 41.7-2.6 57.8-4.4l.8-.2c16.4-1.8 36.6-4.1 45.3 3l.6.6h36.9l.6-.6c8.9-7.2 30.3-4.7 45.9-3h.2c16.2 1.8 57.5 4.4 57.8 4.4l2.6.2v-161h-18.3l-2.4-3-.9-.2c-.2 0-10.2-1.8-24-3.2m-191.4 19.5l6-7.4v124.8l-6 9.9v-127.3zm105 132.3c-1.5-.5-17.4-5.7-40.2-5.7-7.4 0-14.7.6-21.9 1.7-23.3 3.6-35.7 4.4-41.4 4.5l7.4-12.3c.2 0 12.8-5.6 55-5.7 27 0 38.6 11 43.2 18.2l-2.1-.7zm4.2-2.9c-5.7-8-18.3-18.6-45.3-18.6h-.3c-32.9.2-48.2 3.5-53.8 5.1v-127.3c5.9-.9 28.5-4.4 50.7-4.4 27.9 0 44.7 5.4 48.6 15.5l.1 129.7zm4.8-129.9c3.9-10.1 20.7-15.5 48.6-15.5 22.2 0 44.7 3.5 50.7 4.4v127.5c-5.9-1.7-21.2-4.8-53.6-5.1h-.8c-27.3 0-39.5 10.2-44.9 18.2v-129.5zm66.4 128.7c-7.2-1.1-14.6-1.7-21.9-1.7-22.8 0-38.7 5.3-40.2 5.7l-2.1.6c4.2-7.2 15.5-18.5 43.5-18.2 38.7.3 52.9 5 54.8 5.7l7.4 12.3c-5.8 0-18.1-.6-41.5-4.4zm42.8-.9l-6-9.9v-124.8l6 7.4v127.3zm-122.3-115.5c-19.5-15.9-80.5-5.1-81.1-5.1l-.6-3.9c2.6-.5 63.1-11.1 83.8 5.9l-2.1 3.1zm0 8.7c-19.5-15.9-80.5-5.1-81.1-5.1l-.6-3.9c2.6-.5 63.1-11.1 83.8 5.9l-2.1 3.1zm0 8.6c-19.5-15.9-80.5-5.1-81.1-5.1l-.6-3.9c2.6-.5 63.1-11.1 83.8 5.9l-2.1 3.1zm0 8.6c-19.5-15.9-80.5-5.1-81.1-5.1l-.6-3.9c2.6-.5 63.1-11.1 83.8 5.9l-2.1 3.1zm0 8.5c-19.5-15.9-80.5-5.1-81.1-5.1l-.6-3.9c2.6-.5 63.1-11.1 83.8 5.9l-2.1 3.1zm0 8.6c-19.5-15.9-80.5-5.1-81.1-5.1l-.6-3.9c2.6-.5 63.1-11.1 83.8 5.9l-2.1 3.1zm0 8.5c-19.5-15.9-80.5-5.1-81.1-5.1l-.6-3.9c2.6-.5 63.1-11.1 83.8 5.9l-2.1 3.1zm0 8.6c-19.5-15.9-80.5-5.1-81.1-5.1l-.6-3.9c2.6-.5 63.1-11.1 83.8 5.9l-2.1 3.1zm0 8.6c-19.5-15.9-80.5-5.1-81.1-5.1l-.6-3.9c2.6-.5 63.1-11.1 83.8 5.9l-2.1 3.1zm0 8.5c-19.5-15.9-80.5-5.1-81.1-5.1l-.6-3.9c2.6-.5 63.1-11.1 83.8 5.9l-2.1 3.1zm0 8.6c-19.5-15.9-80.5-5.1-81.1-5.1l-.6-3.9c2.6-.5 63.1-11.1 83.8 5.9l-2.1 3.1zm0 8.5c-19.5-15.9-80.5-5.1-81.1-5.1l-.6-3.9c2.6-.5 63.1-11.1 83.8 5.9l-2.1 3.1zm21.8-94.3c19.5-15.9 80.5-5.1 81.1-5.1l.6-3.9c-2.6-.5-63.1-11.1-83.8 5.9l2.1 3.1zm0 8.7c19.5-15.9 80.5-5.1 81.1-5.1l.6-3.9c-2.6-.5-63.1-11.1-83.8 5.9l2.1 3.1zm0 8.6c19.5-15.9 80.5-5.1 81.1-5.1l.6-3.9c-2.6-.5-63.1-11.1-83.8 5.9l2.1 3.1zm0 8.6c19.5-15.9 80.5-5.1 81.1-5.1l.6-3.9c-2.6-.5-63.1-11.1-83.8 5.9l2.1 3.1zm0 8.5c19.5-15.9 80.5-5.1 81.1-5.1l.6-3.9c-2.6-.5-63.1-11.1-83.8 5.9l2.1 3.1zm0 8.6c19.5-15.9 80.5-5.1 81.1-5.1l.6-3.9c-2.6-.5-63.1-11.1-83.8 5.9l2.1 3.1zm0 8.5c19.5-15.9 80.5-5.1 81.1-5.1l.6-3.9c-2.6-.5-63.1-11.1-83.8 5.9l2.1 3.1zm0 8.6c19.5-15.9 80.5-5.1 81.1-5.1l.6-3.9c-2.6-.5-63.1-11.1-83.8 5.9l2.1 3.1zm0 8.6c19.5-15.9 80.5-5.1 81.1-5.1l.6-3.9c-2.6-.5-63.1-11.1-83.8 5.9l2.1 3.1zm0 8.5c19.5-15.9 80.5-5.1 81.1-5.1l.6-3.9c-2.6-.5-63.1-11.1-83.8 5.9l2.1 3.1zm0 8.6c19.5-15.9 80.5-5.1 81.1-5.1l.6-3.9c-2.6-.5-63.1-11.1-83.8 5.9l2.1 3.1zm0 8.5c19.5-15.9 80.5-5.1 81.1-5.1l.6-3.9c-2.6-.5-63.1-11.1-83.8 5.9l2.1 3.1z"/><path fill="#FDD900" d="M510.5 436.8c-4.2-.3-8.7-.6-13.2-.6-16.8 0-27.3 3-31.5 9-4.2-6-14.7-9-31.5-9-4.5 0-9 .2-13.2.6h-.6c-.3 0-.6.2-1.1.2h-.2l-1.1.2h-.3c-.3 0-.5 0-.8.2-.3 0-.6.2-.8.2-8.6.9-14.7 2-14.9 2l-.6.2-1.5 1.8h-11.3v99.2l1.5-.2c.3 0 25.7-1.7 35.7-2.7h.5c10.1-1.1 22.7-2.6 27.9 1.8l.5.3h23l.5-.3c5.4-4.5 18.8-2.9 28.4-1.8 9.9 1.2 35.4 2.7 35.7 2.7l1.5.2v-99.2h-11.3l-1.5-1.8-.6-.2c-.2 0-6.3-1.1-14.9-2m-118 11.4l3.6-4.5v77l-3.6 6.2v-78.7zm64.9 81.7c-.9-.3-10.8-3.6-24.8-3.6-4.5 0-9.2.3-13.5 1.1-14.4 2.3-22.1 2.7-25.7 2.7l4.5-7.7c.2 0 8-3.5 33.9-3.5 16.7 0 23.9 6.8 26.7 11.3l-1.1-.3zm2.6-1.8c-3.5-4.8-11.3-11.4-27.9-11.4h-.2c-20.3 0-29.7 2.1-33.2 3.2v-78.7c3.6-.6 17.6-2.7 31.2-2.7 17.3 0 27.6 3.3 30 9.5l.1 80.1zm3-80.2c2.4-6.3 12.8-9.5 30-9.5 13.7 0 27.6 2.1 31.2 2.7v78.7c-3.6-1.1-13.1-3-33-3.2h-.5c-16.8 0-24.5 6.3-27.8 11.3v-80h.1zm40.9 79.6c-4.4-.8-9-1.1-13.5-1.1-14.1 0-23.9 3.2-24.8 3.6l-1.4.3c2.6-4.4 9.5-11.4 26.9-11.3 24 .2 32.6 3 33.8 3.5l4.7 7.7c-3.6 0-11.2-.5-25.7-2.7zm26.3-.6l-3.8-6.2v-77l3.8 4.5v78.7zm-75.3-71.3c-12-9.9-49.7-3.2-50-3.2l-.3-2.4c1.7-.3 38.9-6.9 51.8 3.6l-1.5 2zm0 5.2c-12-9.9-49.7-3.2-50-3.2l-.3-2.4c1.7-.3 38.9-6.9 51.8 3.6l-1.5 2zm0 5.4c-12-9.9-49.7-3.2-50-3.2l-.3-2.4c1.7-.3 38.9-6.9 51.8 3.6l-1.5 2zm0 5.3c-12-9.9-49.7-3.2-50-3.2l-.3-2.4c1.7-.3 38.9-6.9 51.8 3.6l-1.5 2zm0 5.2c-12-9.9-49.7-3.2-50-3.2l-.3-2.4c1.7-.3 38.9-6.9 51.8 3.6l-1.5 2zm0 5.3c-12-9.9-49.7-3.2-50-3.2l-.3-2.4c1.7-.3 38.9-6.9 51.8 3.6l-1.5 2zm0 5.4c-12-9.9-49.7-3.2-50-3.2l-.3-2.4c1.7-.3 38.9-6.9 51.8 3.6l-1.5 2zm0 5.2c-12-9.9-49.7-3.2-50-3.2l-.3-2.4c1.7-.3 38.9-6.9 51.8 3.6l-1.5 2zm0 5.3c-12-9.9-49.7-3.2-50-3.2l-.3-2.4c1.7-.3 38.9-6.9 51.8 3.6l-1.5 2zm0 5.3c-12-9.9-49.7-3.2-50-3.2l-.3-2.4c1.7-.3 38.9-6.9 51.8 3.6l-1.5 2zm0 5.4c-12-9.9-49.7-3.2-50-3.2l-.3-2.4c1.7-.3 38.9-6.9 51.8 3.6l-1.5 2zm0 5.2c-12-9.9-49.7-3.2-50-3.2l-.3-2.4c1.7-.3 38.9-6.9 51.8 3.6l-1.5 2zm13.3-58.2c12-9.9 49.7-3.2 50-3.2l.3-2.4c-1.7-.3-38.9-6.9-51.8 3.6l1.5 2zm0 5.2c12-9.9 49.7-3.2 50-3.2l.3-2.4c-1.7-.3-38.9-6.9-51.8 3.6l1.5 2zm0 5.4c12-9.9 49.7-3.2 50-3.2l.3-2.4c-1.7-.3-38.9-6.9-51.8 3.6l1.5 2zm0 5.3c12-9.9 49.7-3.2 50-3.2l.3-2.4c-1.7-.3-38.9-6.9-51.8 3.6l1.5 2zm0 5.2c12-9.9 49.7-3.2 50-3.2l.3-2.4c-1.7-.3-38.9-6.9-51.8 3.6l1.5 2zm0 5.3c12-9.9 49.7-3.2 50-3.2l.3-2.4c-1.7-.3-38.9-6.9-51.8 3.6l1.5 2zm0 5.4c12-9.9 49.7-3.2 50-3.2l.3-2.4c-1.7-.3-38.9-6.9-51.8 3.6l1.5 2zm0 5.2c12-9.9 49.7-3.2 50-3.2l.3-2.4c-1.7-.3-38.9-6.9-51.8 3.6l1.5 2zm0 5.3c12-9.9 49.7-3.2 50-3.2l.3-2.4c-1.7-.3-38.9-6.9-51.8 3.6l1.5 2zm0 5.3c12-9.9 49.7-3.2 50-3.2l.3-2.4c-1.7-.3-38.9-6.9-51.8 3.6l1.5 2zm0 5.4c12-9.9 49.7-3.2 50-3.2l.3-2.4c-1.7-.3-38.9-6.9-51.8 3.6l1.5 2zm0 5.2c12-9.9 49.7-3.2 50-3.2l.3-2.4c-1.7-.3-38.9-6.9-51.8 3.6l1.5 2z"/><path fill="#EC008C" d="M165.6 528.1c-3-.3-6.3-.5-9.6-.5-12.2 0-19.8 2.3-23 6.6-3-4.4-10.8-6.6-23-6.6-3.3 0-6.6.2-9.6.5h-3.4c-6.2.6-10.7 1.4-10.8 1.4h-.5l-1.1 1.4h-8.1v72.1h1.2c.2 0 18.8-1.2 26-2h.3c7.4-.8 16.5-1.8 20.4 1.4l.3.3h16.5l.3-.3c3.9-3.2 13.7-2.1 20.7-1.4 7.2.9 25.8 2 26 2h1.2v-72.1h-8.3l-1.1-1.4h-.5s-4.7-.8-10.8-1.4m-85.8 8.9l2.7-3.3v56l-2.7 4.5v-57.2zm47.1 59.4c-.6-.3-7.8-2.6-18-2.6-3.3 0-6.6.3-9.9.8-10.5 1.7-16.1 2-18.6 2l3.3-5.6s5.7-2.6 24.6-2.6c12.2 0 17.3 5 19.4 8.1l-.8-.1zm2-1.3c-2.6-3.6-8.3-8.3-20.3-8.3h-.2c-14.7 0-21.6 1.5-24.2 2.3v-57.2c2.7-.5 12.8-2 22.8-2 12.6 0 20.1 2.4 21.9 6.9v58.3zm2.1-58.3c1.8-4.5 9.3-6.9 21.9-6.9 9.9 0 20.1 1.5 22.8 2v57.2c-2.6-.8-9.5-2.1-24-2.3h-.3c-12.3 0-17.7 4.7-20.1 8.1-.3 0-.3-58.1-.3-58.1zm29.9 57.8c-3.2-.5-6.5-.8-9.9-.8-10.2 0-17.4 2.4-18 2.6l-.9.3c2-3.2 6.9-8.3 19.5-8.1 17.4.2 23.7 2.3 24.6 2.6l3.3 5.6c-2.6-.2-8.3-.5-18.6-2.2zm19-.4l-2.7-4.5v-56l2.7 3.3v57.2zm-54.8-51.8c-8.7-7.2-36.2-2.3-36.3-2.3l-.3-1.7c1.2-.2 28.4-5 37.7 2.6l-1.1 1.4zm0 3.9c-8.7-7.2-36.2-2.3-36.3-2.3l-.3-1.7c1.2-.2 28.4-5 37.7 2.6l-1.1 1.4zm0 3.8c-8.7-7.2-36.2-2.3-36.3-2.3l-.3-1.7c1.2-.2 28.4-5 37.7 2.6l-1.1 1.4zm0 3.9c-8.7-7.2-36.2-2.3-36.3-2.3l-.3-1.7c1.2-.2 28.4-5 37.7 2.6l-1.1 1.4zm0 3.7c-8.7-7.2-36.2-2.3-36.3-2.3l-.3-1.7c1.2-.2 28.4-5 37.7 2.6l-1.1 1.4zm0 3.9c-8.7-7.2-36.2-2.3-36.3-2.3l-.3-1.7c1.2-.2 28.4-5 37.7 2.6l-1.1 1.4zm0 3.9c-8.7-7.2-36.2-2.3-36.3-2.3l-.3-1.7c1.2-.2 28.4-5 37.7 2.6l-1.1 1.4zm0 3.8c-8.7-7.2-36.2-2.3-36.3-2.3l-.3-1.7c1.2-.2 28.4-5 37.7 2.6l-1.1 1.4zm0 3.9c-8.7-7.2-36.2-2.3-36.3-2.3l-.3-1.7c1.2-.2 28.4-5 37.7 2.6l-1.1 1.4zm0 3.7c-8.7-7.2-36.2-2.3-36.3-2.3l-.3-1.7c1.2-.2 28.4-5 37.7 2.6l-1.1 1.4zm0 3.9c-8.7-7.2-36.2-2.3-36.3-2.3l-.3-1.7c1.2-.2 28.4-5 37.7 2.6l-1.1 1.4zm0 3.9c-8.7-7.2-36.2-2.3-36.3-2.3l-.3-1.7c1.2-.2 28.4-5 37.7 2.6l-1.1 1.4zm9.8-42.3c8.7-7.2 36.2-2.3 36.3-2.3l.3-1.7c-1.2-.2-28.4-5-37.7 2.6l1.1 1.4zm0 3.9c8.7-7.2 36.2-2.3 36.3-2.3l.3-1.7c-1.2-.2-28.4-5-37.7 2.6l1.1 1.4zm0 3.8c8.7-7.2 36.2-2.3 36.3-2.3l.3-1.7c-1.2-.2-28.4-5-37.7 2.6l1.1 1.4zm0 3.9c8.7-7.2 36.2-2.3 36.3-2.3l.3-1.7c-1.2-.2-28.4-5-37.7 2.6l1.1 1.4zm0 3.7c8.7-7.2 36.2-2.3 36.3-2.3l.3-1.7c-1.2-.2-28.4-5-37.7 2.6l1.1 1.4zm0 3.9c8.7-7.2 36.2-2.3 36.3-2.3l.3-1.7c-1.2-.2-28.4-5-37.7 2.6l1.1 1.4zm0 3.9c8.7-7.2 36.2-2.3 36.3-2.3l.3-1.7c-1.2-.2-28.4-5-37.7 2.6l1.1 1.4zm0 3.8c8.7-7.2 36.2-2.3 36.3-2.3l.3-1.7c-1.2-.2-28.4-5-37.7 2.6l1.1 1.4zm0 3.9c8.7-7.2 36.2-2.3 36.3-2.3l.3-1.7c-1.2-.2-28.4-5-37.7 2.6l1.1 1.4zm0 3.7c8.7-7.2 36.2-2.3 36.3-2.3l.3-1.7c-1.2-.2-28.4-5-37.7 2.6l1.1 1.4zm0 3.9c8.7-7.2 36.2-2.3 36.3-2.3l.3-1.7c-1.2-.2-28.4-5-37.7 2.6l1.1 1.4zm0 3.9c8.7-7.2 36.2-2.3 36.3-2.3l.3-1.7c-1.2-.2-28.4-5-37.7 2.6l1.1 1.4z"/></svg>