<svg xmlns="http://www.w3.org/2000/svg" viewBox="0 0 76 65.1" enable-background="new 0 0 76 65.1"><linearGradient id="a" gradientUnits="userSpaceOnUse" x1="18.244" y1="-8.691" x2="18.244" y2="64.037"><stop offset="0" stop-color="#7BC043"/><stop offset="1" stop-color="#55C9F4"/></linearGradient><path fill="url(#a)" d="M2 52.6c0-8.6 4.7-27.2 11.6-49.3 1-3.3 2.2-3.3 6.7-3.3l-3.9 12.3h16.6c2.1 0 1.6 1.4.8 5.3h-18.9c-4.8 16.8-6.9 28.1-6.9 33.3 0 5.3 2.5 8.6 8.1 8.6 3.8 0 6.9-1.1 9.2-2.3l.3.3-.4 2.1c-1.1 4.3-6.9 5.5-11.5 5.5-6.9 0-11.7-4.2-11.7-12.5z"/><linearGradient id="b" gradientUnits="userSpaceOnUse" x1="54.274" y1="-8.691" x2="54.274" y2="64.037"><stop offset="0" stop-color="#7BC043"/><stop offset="1" stop-color="#55C9F4"/></linearGradient><path fill="url(#b)" d="M49.7 65.1c-10.5 0-17.1-6.8-17.1-15.8 0-8.4 6-13.9 14.2-16-5.6-2.7-9-8.7-9-14.3 0-11.5 9.5-18 21.1-18 9.2 0 17.1 4.6 17.1 14.7 0 8.8-6.5 15.2-14.5 17.9 5.7 2.1 9.5 6.6 9.5 12.6 0 11.7-10 18.9-21.3 18.9zm3.7-29.1c-8.4 0-14.8 5.3-14.8 13 0 5.7 4.4 10.8 11.5 10.8 8.3 0 15.3-5.3 15.3-13.6-.1-5.6-5-10.2-12-10.2zm4.8-29.7c-8.7 0-14.7 5.1-14.7 13.2 0 5.3 4.4 11.4 11 11.4 8.3 0 15.4-6.4 15.4-14.4 0-5.8-4.1-10.2-11.7-10.2z"/></svg>