<svg xmlns="http://www.w3.org/2000/svg" viewBox="0 0 500 493.7" enable-background="new 0 0 500 493.7"><linearGradient id="a" gradientUnits="userSpaceOnUse" x1="49.295" y1="246.12" x2="427.308" y2="246.12"><stop offset="0" stop-color="#FFF23A"/><stop offset=".04" stop-color="#FEE62D"/><stop offset=".117" stop-color="#FED41A"/><stop offset=".196" stop-color="#FDC90F"/><stop offset=".281" stop-color="#FDC60B"/><stop offset=".668" stop-color="#F28F3F"/><stop offset=".888" stop-color="#ED693C"/><stop offset="1" stop-color="#E83E39"/></linearGradient><path stroke="url(#a)" stroke-miterlimit="10" d="M274.4 390.2c-2.9 3.2-3.9 6.6-5.4 9.6l-1.8 4.1c-4.4 7.7-6.1 8.4-15.5 6.1.4-2.7 2.2-4.8 3.7-6.9 5.2-7.3 10.6-14.5 15.9-21.8 1.9-2.5 3.5-5.2 4.5-8.4-1.8-.5-2.4.7-3 1.5l-16.7 19.9c-3.6 5-8.2 5.5-13.9 4.3 3.1-5.1 6.7-9.4 10.3-13.7 6.4-7.7 13.6-14.7 20.8-21.5 1.6-1.5 2.8-3.2 3.9-5.8-7.9-1.5-11.6-6.2-11.1-14 .3-4.9 3.2-7.4 7.6-8.4 1-2.1-.2-3.7-.7-5.4-2.4-7.8-4.9-15.6-7.2-23.4-3.6-12.1-3.9-24.6-4.7-37.1-.2-3.7-.5-7.3-.6-11-.1-2.3-1.5-3.7-3.1-4.8-2.4-1.7-2.8-3.6-2-6.5 2.5-9.3 4.4-18.8 8.6-27.6 1.3-2.7 1.9-5.7 2.7-8.6 1.2-4.2 2.3-8.4 4.1-12.3 2.1-4.5 2-7.5-.5-12.7-1.5-.7-2.6.1-3.6 1-6.2 5.7-14 8-21.8 9-7.2.9-14.6.6-21.7-1.3-9.2-2.5-14.3-9.3-17.6-17.7-2.5-6.3-4.3-12.9-6.3-19.4-2-6.3-.3-12.9 2.3-18.9 2.1-4.9 5.1-9.4 6.3-14.6.6-2.6 1.5-5.2 1.5-7.8 0-2.5-.2-4.7 2.7-5.2-.4-2.9-1.6-4-4-4.2-6.3-.5-12.6-.7-18.8-2.2-2-.5-3.2.2-4.2 1.8-6.7 10.5-13.5 21-20.3 31.5-1 1.6-.9 3.1-.2 4.7.8 1.8 1.6 3.7 1.6 5.7 0 1.3-.5 2.3-1.9 2.5-1.1.2-2-.4-2.3-1.4-.7-2-1.4-3.8-4-3.8-.4 0-1.1-.5-1.1-.8-.8-4.5-4.7-4.8-8-5.6-25.6-6.7-41-23.5-47.8-48.7-.6-2.4-.7-5.1-1.9-7.2-1.1-1.9-3.4-3.1-3-5.9-7.2-1.7-14-1.3-20.8-.8-2.5.2-4.9 2.5-7.7 4.1-5.2-2.5-10.6-5-16.7-8 5.9-2.5 10.9-4.6 15.9-6.8 1.5-.6 2.6-.2 3.6.9 2.9 3.3 6.7 4 10.7 4.2 4.8.3 9.6.6 14.3.3 1.1-2.5 1.1-5.2 4.1-6.2 1.6-.5 1.4-2.9 1.8-4.4 3.4-11.9 9.2-22.4 18-31.2 8.8-8.7 19.5-13.8 31.5-16.1l6.4-1.1c1.1-.2 2.9-.3 3.2-1 1.8-3.3 6.3-3.1 8-6.5.7-1.3 2.2-1.6 3.5-.9 1.5.9 1 2.3.5 3.5-.7.7-.9 1.7-1.5 2.2-3.4 2.9-1.9 5.6-.2 8.7 7.9 14.5 15.7 29 23.3 43.6 1.5 3 3.3 4.5 6.8 4.7 9.5.7 18.5 3.9 28 5.2 11 1.5 22.1 2.8 33.2 3.7 6.5.5 12.9.9 19.4 1 3.4.1 6.8.6 9.8 3 2.7 2.1 5.9 2.5 9.6 1.1-1.6-1.9-3.6-1.3-5.3-1.7-2.1-.4-3.5-1.6-3.2-3.7.4-4.1-.5-8.1-.4-12.2-.5-1.5-2.5-.8-3.3-2.3 0-.2-.2-.8-.1-1.2.7-3 2.5-5.4 4.5-7.7 2.1-2.5 3.4-5 1.1-7.9 1.1-1.6 2.2-2.9 3-4.3 1.1-1.9 1.5-3.7-.9-5.1-2.9-1.6-3.4-4.4-2.8-7.4.7-3.1 3-4.7 6.1-5 1.4-.1 2.7-.4 3.6-1.4 1.1-1.2 2.6-1.5 4.1-1.5 2.5 0 4.8-.5 7-1.8 4.8-2.8 10.6-2.2 15.7-4.3 1.6-.7 3.3.1 4.4 1.6.8 1 .9 2.5 2.3 3.1 7.1-5.2 11.5-3.8 14.6 4.5 1.5 1.1 3.2-.9 4.1-.2 1.5 1.2 1.8 2.3 1.7 3.2-.2 2.1.9 3.4 2.3 4.7 5.5 5.1 6.7 11.5 3.4 18.5-1 2-1.7 3.9-1.9 6.1-.5 4.9-3.5 8.5-7 11.8-2.8 2.6-6.3 4.4-8.1 7.6.3 1.8 1.4 2.1 2.6 2.2 13.9 1.3 27.8 2.8 41.6-1.5 5.6-1.8 11-.3 16 2.1 3.4 1.7 6.9 3.3 10.4 4.7 3.2 1.3 5.7 3.4 7.1 6.7.3.6.5 1.3.9 1.8 4.4 5 2.3 9.8-.3 14.7-4.7 9.1-11.5 16.2-19.6 22.3-1.6 1.2-3.1 2.6-4.4 4.1-5.6 6.5-12.7 10.7-20.4 14-3 1.3-5.4 3.1-7.6 5.6-1.4 1.6-2.7 3.6-4.4 4.7-8.8 5.7-12 14.7-14.9 24l-.5 1.9c-2.2 4.9-1.5 9.5.4 14.5 5.1 13 7.2 26.6 9 40.3.7 4.9 1.6 9.9 1.4 14.9-.1 2.4-.7 4.2-3.3 4.8-2.9.7-3.5 2.6-3.1 5.3 1 8.1 2.2 16.2 2.8 24.3.9 11.5-.1 23-1.3 34.4-.4 4-.3 8-.3 12 0 1.5.3 3 1.5 4 .2 0 .4.1.5.1 2.9-.8 5.8-1.8 8.1 1.3 2.5 3.3 2.6 6.9.8 10.3-1.2 2.2-1.7 4.1-1.1 6.5.6 2.8.4 5.6-1.3 8.4 4.5 6.2 8.8 12.5 13.4 18.6 4.4 5.7 7.6 12.1 11.1 18.3 2.7 4.7 2.3 8.8-1 12.8-1 1.3-1.6 2.9-4.1 3.5-1.9-3.7-1-8-2.1-11.9-1.2-4.2-2.5-8.3-4.4-12.2-1.8-3.7-2.6-7.9-6-11.5-.4 4 1 7.3 1.6 10.5 1.6 8.9 1.4 17.9 2.5 26.8.3 2.3.6 4.6 1.1 6.9 2 8.4 4 16.8 6.1 25.2.7 2.7 1.5 5.5 2.9 8 .5.9.8 2.1 1.5 2.5 4.6 2.9 8 7.5 13.4 9.4 3.1 1.1 6.3 2 8.7 4.6 1.3 1.3 2.9 1.4 4.6.8 1.9-.7 3.9-.5 5.9.1 3.1 1.1 4.8 3.2 4.6 5.8-.2 2.5-1.5 3.6-5.4 4-8.6.9-17.3 1.3-25.9 1.1-4.2-.1-8.3.2-12.3 1.5-4.2 1.4-8.6.7-12.9.4-2-.2-3.4-1.2-4-3.2-1.4-5.3-3.1-10.6.6-15.8 1.2-1.7.9-3.8.5-5.8-.8-3.3-1.9-6.4-3.4-9.4-3.8-7.6-7.2-15.4-9.3-23.6-1-4-3.3-7.4-6.4-9.9-9-6.9-12.2-16.7-14.6-27.1-1.2-5.4-1-10.9-1-16.4 0-1-.2-2-.3-2.8-6-3.4-6.6-6.3-2-12.3-7.2-14.6-11.2-30.5-14.1-47-1 1.9-5.9 28.8-6.1 32.5.5 1.2 1.9 1.3 2.6 2.2 1.7 2 2.5 4.8 1 6.4-2.4 2.7-1.5 5.1-.7 7.8 4.1 14.9 3.5 30 2 45.1-.1.8-.3 1.7-.6 2.4-5.5 12.9-5 26.7-6.3 40.2-.4 3.6-.1 7.3-.6 11-.6 4.4-.3 8.3 2 12.4s.4 8.8-1.5 12.9c-.8 1.6-2.8 1.4-4.5 1.5-6.6.6-12.9-1.2-19.3-2.3-11.9-2.1-23.8-1.4-35.8-.2-2.8.3-5.8 1.5-7.7-1.5-2-3.3-.2-6.1 1.6-8.7 2.6-3.7 6.5-5.4 10.9-4.7 5.4.8 10-.1 14.7-3 3.8-2.3 8.5-2.6 12.6-4.5 4.7-2.3 4.8-2.1 4.4-7.3-.9-10.4-.6-21.1-3.6-31.2-2.6-8.7-4-17.5-5.3-26.4-.3-2.5.3-5.2-1.1-8.6zm-63.4-302.2c-2.6-1.5-5.4-2.2-8.4-1.6 2.7 1.1 5.5 1.8 8.4 1.6l12.2 12.4c2.4 2.4 5 4.4 8.5 2.2 1.9 3.6 3.1 7 5.1 10.1 4.1 6 8.5 12 9.3 19.6.1.6.6 1.1 1.6 1.1.2-.5.7-1 .8-1.6.3-1.1.4-2.3.6-3.4 1.7-9.6 4.6-18.8 11.2-26.3 6.9-7.8 14.7-14.1 26-13.8.6 0 1.4 0 1.4-1-2.8-1.4-2.8-1.4-5.5-1.5-18-.3-36 .4-53.9.9-5.7.2-11.5.6-17.3 1.3zm-19.7-22.3c-1.3-4.9-24.6-47.6-27.5-50.5-24.9 7.9-42.6 34.1-41.6 49.7 1.4 1 2.9.3 4.3.4 5.6.2 11.4-1.2 16.8 1.1 5.5 2.3 11 3.6 17 2.2 1.3-.3 2.7 0 4-.1l23.4-1.3c1.4-.1 2.7-.3 3.6-1.5zm-70.1 17.7c-.6 21.1 19 46.2 38.7 53.4 7.4-11.2 14.8-22.6 22.3-34.1-4.3-3.6-8-7.3-9.5-12-1.8-5.6-5.2-7.6-10.5-7.5l-.5-.1c-6.3-.5-12.5-1.6-18.7.7-2.9 1.1-5.8.8-8.8.4-4.1-.4-8.4-1.3-13-.8zm66.3 9.7c1.9-.9 2.8-2.3 3-4.5-3.3-1.1-6.3-2.7-10.3-2.1 1.9 3.5 4.8 4.7 7.3 6.6zm16.9-.2c-7-3.5-9-3.3-10.5 1.4 3.6-.5 7.1 1.2 10.5-1.4z" fill="none"/></svg>