<svg xmlns="http://www.w3.org/2000/svg" viewBox="0 167 612 474" enable-background="new 0 167 612 474"><path d="M416.8 299.2l-14.6 8.9 1.5 1.8c5.1-4.2 12.8-3.5 17 1.7l12.2 15-49.6 40.4c-2.6 2.1-6.5 1.7-8.6-.9l-2.1-2.7-1.8 1.5 18.2 22.4 1.8-1.5-2.3-2.9c-2.1-2.6-1.7-6.5.9-8.6l49.5-40.5 12.2 15c4.2 5.1 3.5 12.8-1.7 17l1.5 1.8 11.6-12.6-45.7-55.8zm-139.3 288.2l5.3 8.9 1.2-.9c-2.6-3.2-2.1-7.7 1.1-10.2l9-7.4 24.5 29.9c1.2 1.5 1.1 3.9-.5 5.1l-1.7 1.4.9 1.2 13.5-11-.9-1.2-1.7 1.4c-1.5 1.2-3.9 1.1-5.1-.5l-24.5-29.9 9-7.4c3.2-2.6 7.7-2.1 10.2 1.1l1.2-.9-7.5-6.9-34 27.3zm77.7-257.9l5-3-.5-.6c-1.8 1.4-4.4 1.2-5.7-.6l-4.2-5.1 16.8-13.7c.9-.8 2.1-.6 2.9.3l.8.9.6-.5-6.2-7.5-.6.5.8.9c.8.9.6 2.1-.3 2.9l-16.8 13.7-4.2-5.1c-1.4-1.8-1.2-4.4.6-5.7l-.5-.6-3.9 4.2 15.4 19z"/><path fill="#03F1F7" d="M513.1 275.3l-186.9-93.5-19.7-4.8h-5l-19.7 4.8-186.9 93.5-9.9 5v314.9l9.9-5v-300.2l186.9-93.4 19.7-5h5l19.7 5 186.9 93.4v300.1l9.9 5v-314.9l-9.9-4.9z"/><path fill="#EC008C" d="M104.7 299.9v295.2l196.8-98.3v-295.4l-196.8 98.5zm19.8 83.6l88.6-44.3v5l-88.6 44.3v-5zm0 24.7l88.6-44.3v19.7l-88.6 44.3v-19.7zm137.7 34.3l-137.8 68.9v-5l137.8-68.9v5zm19.6-19.6l-157.4 78.7v-5l157.6-78.7v5h-.2zm0-9.8l-157.4 78.7v-5l157.6-78.6v5l-.2-.1zm0-9.9l-157.4 78.7v-5l157.6-78.6v5l-.2-.1zm0-9.9l-157.4 78.8v-5l157.6-78.6v4.8h-.2zm0-9.8l-157.4 78.7v-5l157.6-78.6v5h-.2zm0-9.9l-157.4 78.8v-5l157.6-78.6v4.8h-.2zm0-9.7l-157.4 78.7v-5l157.6-78.7v5h-.2zm0-64l-157.4 78.7v-5l157.4-78.6v4.9zm0-9.9l-157.4 78.8v-5l157.6-78.6v4.8h-.2zm0-9.8l-157.4 78.7v-5l157.6-78.6v5h-.2zm0-9.9l-157.4 78.8v-5l157.6-78.6v4.8h-.2zm0-9.7l-157.4 78.7v-5l157.6-78.7v5h-.2zm0-9.9l-157.4 78.7v-5l157.6-78.7v5h-.2zm0-9.8l-157.4 78.7v-5l157.6-78.7v5h-.2z"/><path fill="#FFE000" d="M306.5 201.4v295.2l196.8 98.3v-295l-196.8-98.5zm19.6 177.2l88.6 44.3v19.7l-88.6-44.3v-19.7zm59 98.5l-59-29.6v-19.7l59 29.6v19.7zm78.9 14.7l-137.8-68.9v-19.7l137.8 68.9v19.7zm19.6-49.3l-157.5-78.7v-127.9l157.5 78.7v127.9z"/></svg>