<svg xmlns="http://www.w3.org/2000/svg" viewBox="0 161 612 481" enable-background="new 0 161 612 481"><path d="M324.8 272.3" fill="none"/><path fill="#EC008C" d="M497.3 288.9c-.5-2.7-1.1-5.4-1.8-8.1l2.7-.8 1.8 8.3-2.7.6zm-3.9-16c-.8-2.6-1.7-5.3-2.7-7.8l2.7-1.1c.9 2.6 2 5.3 2.7 8l-2.7.9zm-5.7-15.5c-1.1-2.6-2.3-5-3.5-7.5l2.6-1.2 3.6 7.7-2.7 1zm-7.5-14.7c-1.4-2.4-2.9-4.8-4.4-7.1l2.4-1.5c1.5 2.4 3 4.8 4.4 7.2l-2.4 1.4zm-9-13.8c-1.7-2.3-3.3-4.4-5.1-6.5l2.1-1.8c1.8 2.1 3.5 4.4 5.3 6.6l-2.3 1.7zm-10.7-12.6c-2-2-3.8-4.1-5.9-5.9l2-2.1c2 2 4.1 3.9 5.9 6l-2 2zm-11.9-11.6c-2.1-1.8-4.2-3.5-6.5-5.3l1.7-2.3c2.3 1.7 4.5 3.5 6.6 5.3l-1.8 2.3zm-13-10l-6.9-4.5 1.5-2.4c2.4 1.5 4.8 3 7.1 4.5l-1.7 2.4zm-14.3-8.5c-2.4-1.4-5-2.6-7.4-3.6l1.2-2.6c2.6 1.2 5.1 2.4 7.5 3.8l-1.3 2.4zm-15-6.9c-2.6-1.1-5.3-2-7.8-2.9l.9-2.7c2.7.9 5.3 1.8 8 2.9l-1.1 2.7zm-15.6-5.1c-2.7-.8-5.4-1.4-8.1-2l.6-2.7c2.7.6 5.6 1.2 8.3 2l-.8 2.7zm-16.2-3.3c-2.7-.5-5.6-.8-8.3-.9l.3-2.9c2.7.3 5.6.6 8.4 1.1l-.4 2.7zm-16.5-1.5c-2.7-.2-5.6-.2-8.3 0v-2.9h8.4l-.1 2.9zm141.1 132l-.5-4.2 2.9-.3.5 4.2-2.9.3zm18.3-3.3l-34.2 2 18.2 16.1 16-18.1zm-415 156.2c.5 2.7 1.1 5.4 1.8 8.1l-2.7.8-1.8-8.3 2.7-.6zm4.1 16c.8 2.6 1.7 5.3 2.7 7.8l-2.7 1.1c-.9-2.6-2-5.3-2.7-8l2.7-.9zm5.7 15.3c1.1 2.6 2.3 5 3.5 7.5l-2.6 1.2-3.6-7.7 2.7-1zm7.5 14.8c1.4 2.4 2.9 4.8 4.4 7.1l-2.4 1.5c-1.5-2.4-3-4.8-4.4-7.2l2.4-1.4zm9 13.8c1.7 2.3 3.3 4.4 5.1 6.5l-2.1 1.8c-1.8-2.1-3.5-4.4-5.3-6.6l2.3-1.7zm10.5 12.7c2 2 3.8 4.1 5.9 5.9l-2 2.1c-2-2-4.1-3.9-5.9-6l2-2zm12 11.4c2.1 1.8 4.2 3.5 6.5 5.3l-1.7 2.3c-2.3-1.7-4.5-3.5-6.6-5.3l1.8-2.3zm13.1 10.1l6.9 4.5-1.5 2.4c-2.4-1.5-4.8-3-7.1-4.5l1.7-2.4zm14.1 8.6c2.4 1.4 5 2.6 7.4 3.6l-1.2 2.6c-2.6-1.2-5.1-2.4-7.5-3.8l1.3-2.4zm15 6.7c2.6 1.1 5.3 2 7.8 2.9l-.9 2.7c-2.7-.9-5.3-1.8-8-2.9l1.1-2.7zm15.8 5.1c2.7.8 5.4 1.4 8.1 2l-.6 2.7c-2.7-.6-5.6-1.2-8.3-2l.8-2.7zm16.2 3.3c2.7.5 5.6.8 8.3.9l-.3 2.9c-2.7-.3-5.6-.6-8.4-1.1l.4-2.7zm16.3 1.5c2.7.2 5.6.2 8.3 0v2.9h-8.4l.1-2.9zm-141.1-132l.5 4.2-2.9.3-.5-4.2 2.9-.3zm-18.2 3.5l34.2-2-18.2-16.2-16 18.2z"/><path fill="#FDD900" d="M418.5 595.1h-250.6c-14.7 0-26.6 11.9-26.6 26.6v3.6h303.9v-3.6c0-14.7-12-26.6-26.7-26.6zm-93.6-6.2h67.3c-3.5-20.6-18.8-24.9-18.8-24.9-69.7-69.7 0-116.8 0-116.8 3.3 0 6.2-1.1 8.6-2.7l23.9 21c1.8 1.5 3.9 2.4 6.2 2.4 2.6 0 5.1-1.1 7.1-3.2 3.5-3.9 3-9.8-.9-13.2l-23.9-21h-69.4l-.1 158.4zm-128.4 0h68v-158.4h-66.7c1.5 4.4 3.8 9.5 7.7 12.9l-20.5 23.8c-3.5 3.9-3 9.8.9 13.2 1.8 1.5 3.9 2.3 6.2 2.3 2.6 0 5.3-1.1 7.1-3.2l23.1-26.6c15.6 14.4 48.8 55.6-6.8 111.3-.2-.2-15.5 4.2-19 24.7zm70.5-158.4h55.7v158.4h-55.7v-158.4zm164.1-32.7h-11.7c-1.7-2.9-4.1-5.1-7.2-6.3h22.1v-9.8h-95.5l-13.1-11.4c3.3-5.6 5.3-12.2 5.3-19.2 0-6.6-1.7-12.8-4.7-18.2l77.9-89.6c3.5-3.9 3-9.8-.9-13.2s-9.8-3-13.2.9l-67.6 77.6v-93.1h5.6v-11.1h-68.9v11.1h6.3v101.9l-82.3-72.4c-3.9-3.5-9.8-3-13.2.9-3.5 3.9-3 9.8.9 13.2l87.4 76.9c-2.1 4.7-3.2 9.9-3.2 15.3 0 9.5 3.5 18.2 9.2 24.8l-5.1 5.9h-176.8v9.8h98.2c-3 1.2-5.6 3.5-7.2 6.3h-18.2c-7.8 0-14 6.3-14 14v2c0 7.8 6.3 14 14 14h276c7.8 0 14-6.3 14-14v-2c0-8.1-6.3-14.3-14.1-14.3zm-185.9 0h-45.8c-1.7-2.9-4.2-5.1-7.2-6.3h58.6l-5.6 6.3zm47.7-31.8c-8.3 0-15-6.8-15-15s6.8-15 15-15 15 6.8 15 15c.1 8.4-6.7 15-15 15zm29.8 31.8v-5.4l6.2 5.4h-6.2zm70.8 0h-36.5l-7.2-6.3h50.7c-2.9 1.2-5.5 3.4-7 6.3z"/></svg>