<svg xmlns="http://www.w3.org/2000/svg" viewBox="0 0 612 792" enable-background="new 0 0 612 792"><circle cx="305.9" cy="396" r="305.9"/><linearGradient id="a" gradientUnits="userSpaceOnUse" x1="203.062" y1="645.364" x2="203.062" y2="278.082" gradientTransform="matrix(1.04 0 0 -1.04 0 884.206)"><stop offset="0" stop-color="#EC008C"/><stop offset=".747" stop-color="#A3C143"/><stop offset="1" stop-color="#52CAF5"/></linearGradient><path fill="url(#a)" d="M142.4 504.9c0-39.1 10.9-98 61-261.5 1-3.1 2.1-3.1 6.2-3.1-7.3 22.9-13.5 43.8-19.2 63h87.5c2.6 0 2.6 1 1.6 5.2h-90.6c-33.4 114.6-41.2 164.2-41.2 196.4 0 27.6 16.1 43.3 43.8 43.3 18.7 0 31.2-4.2 42.2-10.4l.5.5-.5 1.6c-2.6 6.2-18.2 13.5-42.2 13.5-30.9 0-49.1-17.7-49.1-48.5z"/><linearGradient id="b" gradientUnits="userSpaceOnUse" x1="374.95" y1="645.364" x2="374.95" y2="278.082" gradientTransform="matrix(1.04 0 0 -1.04 0 884.206)"><stop offset="0" stop-color="#EC008C"/><stop offset=".747" stop-color="#A3C143"/><stop offset="1" stop-color="#52CAF5"/></linearGradient><path fill="url(#b)" d="M368.7 553.4c-44.8 0-78.1-31.2-78.1-72.4 0-39.6 30.2-71.9 74.5-79.2-30.7-10.9-52.1-43.8-52.1-74 0-50.6 38.1-82.8 94.9-82.8 49.5 0 81.8 27 81.8 68.2 0 46.4-39.1 80.2-80.7 89.6 33.4 7.3 58.4 33.9 58.4 65.1-.3 54.2-47.1 85.5-98.7 85.5zm17.7-148.6c-53.7 0-90.6 34.4-90.6 76 0 38.1 31.3 67.2 72.9 67.2 48.5 0 93.2-29.1 93.2-80.2 0-35.3-34.9-63-75.5-63zm21.3-154.6c-53.7 0-89.6 30.2-89.6 77.6 0 34.4 29.6 71.9 68.2 71.9 49 0 98-36 98-86.4.1-38.2-30.2-63.1-76.6-63.1z"/></svg>